<svg xmlns="http://www.w3.org/2000/svg" width="24" height="24" viewBox="0 0 24 24" shape-rendering="crispEdges">
  <rect x="0" y="0" width="24" height="24" fill="none"/>

  <path d="M10 2H14V3H15V12H16V15H15V17H16V22H8V17H9V15H8V12H9V3H10Z" fill="#111111"/>

  <path d="M11 3H13V4H14V12H10V4H11Z" fill="#f3df28"/>
  <path d="M11 4H12V11H10V5H11Z" fill="#fff36a"/>
  <path d="M13 4H14V12H12V11H13Z" fill="#b8a70f"/>

  <rect x="9" y="12" width="6" height="2" fill="#f3df28"/>
  <rect x="10" y="13" width="5" height="1" fill="#b8a70f"/>

  <rect x="9" y="15" width="6" height="2" fill="#bfc3c4"/>
  <rect x="10" y="15" width="4" height="1" fill="#ffffff"/>
  <rect x="14" y="15" width="1" height="2" fill="#7b8082"/>

  <rect x="9" y="17" width="6" height="1" fill="#f6f6f6"/>
  <rect x="9" y="18" width="1" height="3" fill="#f6f6f6"/>
  <rect x="10" y="18" width="1" height="4" fill="#d9d9d9"/>
  <rect x="11" y="18" width="1" height="3" fill="#f6f6f6"/>
  <rect x="12" y="18" width="1" height="4" fill="#d9d9d9"/>
  <rect x="13" y="18" width="1" height="3" fill="#f6f6f6"/>
  <rect x="14" y="18" width="1" height="4" fill="#c4c4c4"/>

  <rect x="10" y="21" width="1" height="1" fill="#111111"/>
  <rect x="12" y="21" width="1" height="1" fill="#111111"/>
  <rect x="14" y="21" width="1" height="1" fill="#111111"/>
</svg>
