<svg xmlns="http://www.w3.org/2000/svg" width="24" height="24" viewBox="0 0 24 24" shape-rendering="crispEdges">
  <rect x="0" y="0" width="24" height="24" fill="none"/>
  <rect x="3" y="18" width="3" height="3" fill="#111111"/>
  <rect x="4" y="19" width="1" height="1" fill="#ffffff"/>
  <rect x="8" y="9" width="3" height="3" fill="#111111"/>
  <rect x="9" y="10" width="1" height="1" fill="#ffffff"/>
  <rect x="14" y="14" width="3" height="3" fill="#111111"/>
  <rect x="15" y="15" width="1" height="1" fill="#ffffff"/>
  <rect x="19" y="4" width="3" height="3" fill="#111111"/>
  <rect x="20" y="5" width="1" height="1" fill="#ffffff"/>
  <path d="M5 18H6V16H7V14H8V12H9V11H10V12H11V13H12V14H13V15H14V16H15V14H16V12H17V10H18V8H19V6H20V5H21V7H20V9H19V11H18V13H17V15H16V17H14V16H13V15H12V14H11V13H10V12H9V13H8V15H7V17H6V19H5Z" fill="#2f69c8"/>
  <path d="M5 17H6V15H7V13H8V11H9V10H11V11H12V12H13V13H14V14H15V13H16V11H17V9H18V7H19V5H21V6H20V8H19V10H18V12H17V14H16V16H14V15H13V14H12V13H11V12H10V11H9V12H8V14H7V16H6V18H5Z" fill="#111111"/>
</svg>
