/* XPM */
static char *IDI_ICON_COLOR_GRADIENT_xpm[] = {
/* columns rows colors chars-per-pixel */
"32 32 193 2",
"   c black",
".  c #50524E",
"X  c #51534F",
"o  c #515350",
"O  c #525350",
"+  c #525450",
"@  c #535451",
"#  c #535551",
"$  c #535552",
"%  c #545652",
"&  c #555753",
"*  c #555754",
"=  c #565754",
"-  c #565854",
";  c #575955",
":  c #585A56",
">  c #595A57",
",  c gray35",
"<  c #5A5B58",
"1  c #5A5B59",
"2  c #5B5B5B",
"3  c #5A5C58",
"4  c #5B5C59",
"5  c #5B5D59",
"6  c #5B5D5A",
"7  c #5C5C5A",
"8  c #5C5D5A",
"9  c #5D5F5B",
"0  c gray36",
"q  c #5D5D5D",
"w  c gray37",
"e  c #5F5F5F",
"r  c #606060",
"t  c gray39",
"y  c #646464",
"u  c #656565",
"i  c gray40",
"p  c #676767",
"a  c #676966",
"s  c DimGray",
"d  c #6C6C6C",
"f  c #6D6D6D",
"g  c gray43",
"h  c #70716F",
"j  c #717171",
"k  c #727371",
"l  c #747474",
"z  c gray46",
"x  c #757674",
"c  c #767676",
"v  c #777877",
"b  c gray47",
"n  c #797A78",
"m  c #7B7B7B",
"M  c #7B7C7A",
"N  c gray49",
"B  c #7E7F7D",
"V  c #7F7F7E",
"C  c #808080",
"Z  c #818280",
"A  c gray51",
"S  c #838383",
"D  c #828481",
"F  c #838483",
"G  c #848483",
"H  c #848484",
"J  c gray52",
"K  c #868786",
"L  c gray53",
"P  c #888887",
"I  c #898989",
"U  c #898A88",
"Y  c #8A8A89",
"T  c gray54",
"R  c #8B8B8B",
"E  c #8B8C8A",
"W  c gray55",
"Q  c #8D8D8C",
"!  c #8D8E8C",
"~  c #8E8E8E",
"^  c #8F908F",
"/  c #90908F",
"(  c gray57",
")  c #929391",
"_  c #939392",
"`  c #939393",
"'  c gray58",
"]  c #959595",
"[  c #959694",
"{  c #969695",
"}  c gray59",
"|  c #969796",
" . c #989897",
".. c #989997",
"X. c #989898",
"o. c #9A9A9A",
"O. c #9A9B9A",
"+. c #9B9B9B",
"@. c #9D9D9C",
"#. c #9D9D9D",
"$. c #9D9E9C",
"%. c #9E9E9D",
"&. c #9F9E9F",
"*. c #9F9F9E",
"=. c #9F9F9F",
"-. c #9FA09E",
";. c #9FA09F",
":. c #A0A09F",
">. c #A0A19F",
",. c #A0A0A0",
"<. c #A1A1A0",
"1. c #A2A3A1",
"2. c #A2A2A2",
"3. c gray64",
"4. c #A3A4A2",
"5. c #A3A4A3",
"6. c #A4A5A3",
"7. c #A4A4A4",
"8. c #A5A5A5",
"9. c #A5A6A4",
"0. c #A6A7A5",
"q. c #A8A8A7",
"w. c #A8A9A7",
"e. c #A9A9A9",
"r. c #A9AAA9",
"t. c #AAAAAA",
"y. c #AAABAA",
"u. c gray67",
"i. c #ABACAB",
"p. c #ACADAB",
"a. c #ACACAC",
"s. c #ACADAC",
"d. c #ADADAC",
"f. c #ADADAE",
"g. c #AEAEAE",
"h. c #AFAFAE",
"j. c #AFAFAF",
"k. c #AFB0AE",
"l. c #AFB0AF",
"z. c #B0B1AF",
"x. c gray69",
"c. c #B1B1B1",
"v. c #B2B2B1",
"b. c #B2B2B2",
"n. c #B3B3B2",
"m. c gray70",
"M. c #B3B4B2",
"N. c #B5B5B4",
"B. c gray71",
"V. c #B6B6B6",
"C. c #B7B7B7",
"Z. c #B9B9B9",
"A. c gray73",
"S. c #BBBBBB",
"D. c gray74",
"F. c gray",
"G. c #C0C0C0",
"H. c #C1C1C1",
"J. c gray76",
"K. c #C3C3C3",
"L. c gray77",
"P. c #C5C5C5",
"I. c gray78",
"U. c #C8C7C8",
"Y. c #C8C8C8",
"T. c gray79",
"R. c #CACACA",
"E. c gray80",
"W. c #CECECE",
"Q. c #D0D0D0",
"!. c gray82",
"~. c LightGray",
"^. c gray83",
"/. c #D8D8D8",
"(. c gray85",
"). c #DADADA",
"_. c gainsboro",
"`. c gray88",
"'. c #E1E1E1",
"]. c #E2E2E2",
"[. c #E4E4E4",
"{. c #E6E6E6",
"}. c #E7E7E7",
"|. c gray91",
" X c #E9E9E9",
".X c gray92",
"XX c #EEEEEE",
"oX c #EFEFEF",
"OX c gray94",
"+X c #F4F4F4",
"@X c #F6F6F6",
"#X c #F7F6F7",
"$X c None",
/* pixels */
"$X$X$X$X$X$X$X$X$X$X$X$X$X$X$X$X$X$X$X$X$X$X$X$X$X$X$X$X$X$X$X$X",
"$X$X$X$X$X$X$X$X$X$X$X$X$X$X$X$X$X$X$X$X$X$X$X$X$X$X$X$X$X$X$X$X",
"$X$X$X$X$X$X$X$X$X$X$X$X$X$X$X$X$X$X$X$X$X$X$X$X$X$X$X$X$X$X$X$X",
"$X$X$X- 4 9 4 4 4 4 4 4 4 4 4 4 4 4 4 4 4 , 9 9 9 4 4 - & $X$X$X",
"$X$X$X4 Z *.*.;.,.,.6.6.8.8.q.y.y.i.f.j.h.h.n.M.N.N.M.P - $X$X$X",
"$X$X$X9 *.U.c.c.N.Z.F.G.L.I.E.Q.^./._.'.[.|..XOX+X@X#Xk.- $X$X$X",
"$X$X$X4 @.f.i t g c N H R ( X.,.y.c.N.F.L.W.^./.]. XoXi.- $X$X$X",
"$X$X$X4 @.y.q , y d l m G Y ( o.,.u.c.Z.G.U.Q./.`. XoXf.- $X$X$X",
"$X$X$X4 @.f.r 2 i g c N J W ` +.8.i.n.A.J.T.!.(.'.|.OXi.; $X$X$X",
"$X$X$X4 >.j.r 2 i g c N J W ` +.7.f.n.A.J.T.!.(.'.|.OXi.- $X$X$X",
"$X$X$X4 ,.j.e 0 i g c N J W ` +.7.u.n.A.J.T.!.(.'.|.oXi.- $X$X$X",
"$X$X$X4 ,.x.e 0 i g c N J W ` +.7.f.M.A.J.T.!.(.'.|.oXi.- $X$X$X",
"$X$X$X4 >.f.e , i g c N J W ` +.7.i.n.A.J.T.!.(.`.|.OXi.= $X$X$X",
"$X$X$X4 >.c.t , i g c N J W ` +.7.u.n.A.J.T.!.(.'.|.OXi.= $X$X$X",
"$X$X$X4 *.f.t 9 i g c N J W _ +.7.a.m.A.J.T.Q.).'.|.OXi.= $X$X$X",
"$X$X$X4 @.y.q , i g c N J W _ +.7.f.m.A.J.T.~./.'.|.OXi.= $X$X$X",
"$X$X$X4 X.8.e , i g c N J W ` @.7.a.n.A.K.U.~./.]. XOXi.- $X$X$X",
"$X$X$X4 ] 7.e 0 i g c N J W ` o.7.a.n.A.K.U.Q.).'.|.OXp.- $X$X$X",
"$X$X$X4 ] 3.e 0 i g c N J W ` o.7.a.m.A.K.U.~./.'.|.oXi.- $X$X$X",
"$X$X$X4 ) &.q 0 i g c N J W ` @.7.a.m.A.L.U.Q.).'.|.oXi.= $X$X$X",
"$X$X$X, ~ o.q 0 i g c N J W ` o.7.a.m.A.J.U.Q./.'.|.OXi.= $X$X$X",
"$X$X$X4 ! o.e q i g c N J W ` o.7.a.m.A.L.U.~./.'.|.OXi.= $X$X$X",
"$X$X$X4 W ] q 0 i g c N J W ` +.7.a.m.A.J.U.~.).'.|.oXi.= $X$X$X",
"$X$X$X> L ( q 0 i g c N J ! ` +.7.a.m.A.J.U.Q./.'.|.OXi.= $X$X$X",
"$X$X$X4 D ! 0 , i g c N H R ` o.8.y.n.Z.K.U.Q./.'.|.OXi.- $X$X$X",
"$X$X$X> V L e e s j c C L ! ] @.8.f.m.S.G.W.Q./.`.|.OXi.& $X$X$X",
"$X$X$X> v P n m Z Y ! ] o.&.8.f.c.C.F.K.U.Q.^./.'.[. Xw.# $X$X$X",
"$X$X$X- a j j j c n M N Z H J Y ! ^ ) [ ..O.@.>.6.0.0.D # $X$X$X",
"$X$X$XX & # X X X X X X X X X X X X X # # X # # # # # # . $X$X$X",
"$X$X$X$X$X$X$X$X$X$X$X$X$X$X$X$X$X$X$X$X$X$X$X$X$X$X$X$X$X$X$X$X",
"$X$X$X$X$X$X$X$X$X$X$X$X$X$X$X$X$X$X$X$X$X$X$X$X$X$X$X$X$X$X$X$X",
"$X$X$X$X$X$X$X$X$X$X$X$X$X$X$X$X$X$X$X$X$X$X$X$X$X$X$X$X$X$X$X$X"
};
