/* XPM */
static const char *IDI_ICON_COLOR_FILL_xpm[] = {
/* columns rows colors chars-per-pixel */
"32 32 48 1",
"  c black",
". c #555753",
"X c #5F605D",
"o c #6B6D6B",
"O c #616B7C",
"+ c #6F706D",
"@ c #6D7174",
"# c #71736F",
"$ c #747673",
"% c #777976",
"& c #7A7C78",
"* c #7A7C79",
"= c #5B6785",
"- c #5F7095",
"; c #5E73A2",
": c #6275A4",
"> c #6779A6",
", c #667BA9",
"< c #7E807D",
"1 c #6C81AE",
"2 c #798EB8",
"3 c #848583",
"4 c #878885",
"5 c #8D8E8C",
"6 c #979795",
"7 c #999A97",
"8 c gray61",
"9 c #A4A5A3",
"0 c #A7A8A6",
"q c #ADADAC",
"w c #AEB0AE",
"e c #B3B4B3",
"r c #BABBB9",
"t c #BBBBBB",
"y c #859BC3",
"u c #90A9D1",
"i c #B4CDED",
"p c #C0C1BF",
"a c gray77",
"s c gray80",
"d c gray83",
"f c gainsboro",
"g c #E3E3E2",
"h c #E4E4E4",
"j c #ECECEC",
"k c #F4F4F4",
"l c gray99",
"z c None",
/* pixels */
"zzzzzzzzzzzzzzzzzz......zzzzzzzz",
"zzzzzzzzzzzzzzzzz..zzzz..zzzzzzz",
"zzzzzzzzzzzzzzzz..zzzzzz..zzzzzz",
"zzzzzzzzzzzzzzzz..zzzzzz..zzzzzz",
"zzzzzzzzzzzzzzzz..z*fazz..zzzzzz",
"zzzzzzzzzzzzzzzz..ajsh*z..zzzzzz",
"zzzzzzzzzzzzzzzz..fsssfz..zzzzzz",
"zzzzzzzzzzzzzz5j..ddssh6..zzzzzz",
"zzzzzzzzzzzz*fkh..fdsssh..zzzzzz",
"zzzzzzzzzzzalkjj..fddssf6.zzzzzz",
"zzzzzzzzO9kllkjj..ffdssah+zzzzzz",
"zzz:,;=3hkjllkkj..hfddssdszzzzzz",
"zzyu-@sjfhjkllkk..hffddsah<zzzzz",
"z>i1Xkssdfhjklk3#o4ffddsssfzzzzz",
"z>i1zsaasdfjkl538953ffddssf8zzzz",
"z>i1z#hasdfhjk$8ete$hffdssahzzzz",
"z>i1zzesasdfhj#9tdt#hffddssdtzzz",
"z>i1zzzhtadfhj0*qe39hhffdssah$zz",
"z>i1zzz7fasdfhja*$qjjhhfddsssszz",
"z>i1zzzzfaasfhjkllkkjhhffddsahoz",
"z>i1zzzz<hasdfhjklkkjjhhfddssf8z",
"z>i1zzzzzssasdfhjllkkjjhffdddj$z",
"zz2:zzzzzohtsdfhjkllkjjhhffhg$zz",
"zzzzzzzzzzwdasdfhjllkkjjhjj8zzzz",
"zzzzzzzzzzzhaadfhjkllkjjkpzzzzzz",
"zzzzzzzzzzz6fasdfhjklklf*zzzzzzz",
"zzzzzzzzzzzzdaasdfjklj5zzzzzzzzz",
"zzzzzzzzzzzz%hasdfjkqzzzzzzzzzzz",
"zzzzzzzzzzzzztdadjaozzzzzzzzzzzz",
"zzzzzzzzzzzzzzdfdozzzzzzzzzzzzzz",
"zzzzzzzzzzzzzzzzzzzzzzzzzzzzzzzz",
"zzzzzzzzzzzzzzzzzzzzzzzzzzzzzzzz"
};
