/* XPM */
static char *IDI_ICON_COLOR_PICKER_xpm[] = {
/* columns rows colors chars-per-pixel */
"32 32 158 2",
"   c black",
".  c #2A2F2F",
"X  c #2A3031",
"o  c #2B3132",
"O  c #2B3237",
"+  c #2D3234",
"@  c #2D3235",
"#  c #2D3335",
"$  c #2E3334",
"%  c #2E3335",
"&  c #2E3436",
"*  c #2E3437",
"=  c #29333B",
"-  c #2E3539",
";  c #2E373D",
":  c #2E383F",
">  c #18345B",
",  c #1C3960",
"<  c #1E3B63",
"1  c #1D3E6F",
"2  c #293540",
"3  c #2B3741",
"4  c #2E3942",
"5  c #2E3943",
"6  c #2D3B46",
"7  c #2E3A44",
"8  c #2D3D4D",
"9  c #2E4053",
"0  c #2F4052",
"q  c #2F4359",
"w  c #2F435B",
"e  c #2F445B",
"r  c #2F455D",
"t  c #2F455E",
"y  c #3C4245",
"u  c #364453",
"i  c #234169",
"p  c #25446C",
"a  c #2F4761",
"s  c #2F4A68",
"d  c #254A7F",
"f  c #2C4C77",
"g  c #304762",
"h  c #304863",
"j  c #304C6C",
"k  c #314C6C",
"l  c #304C6E",
"z  c #3B4E62",
"x  c #3B516D",
"c  c #31537D",
"v  c #62696E",
"b  c #6D7276",
"n  c #2B5186",
"m  c #2C5182",
"M  c #2C5183",
"N  c #315581",
"B  c #325A8C",
"V  c #325B8D",
"C  c #335C8F",
"Z  c #325D92",
"A  c #376197",
"S  c #3B6192",
"D  c #3E679B",
"F  c #3F699F",
"G  c #3566A4",
"H  c #3566A5",
"J  c #3166A8",
"K  c #3568A8",
"L  c #3568A9",
"P  c #3569AB",
"I  c #3B68A1",
"U  c #3A68A2",
"Y  c #3D69A0",
"T  c #436187",
"R  c #406694",
"E  c #426A9D",
"W  c #446D9F",
"Q  c #466D9E",
"!  c #57779D",
"~  c #5C7591",
"^  c #5F7793",
"/  c #4B78AD",
"(  c #4D7BB3",
")  c #4F7BB0",
"_  c #4F7FB9",
"`  c #507AA9",
"'  c #557CAA",
"]  c #587DAA",
"[  c #557EB5",
"{  c #617893",
"}  c #637A92",
"|  c #657A90",
" . c #687C90",
".. c #6B7D90",
"X. c #6C7E90",
"o. c #707C88",
"O. c #5081BA",
"+. c #5182BC",
"@. c #5183BE",
"#. c #5986B8",
"$. c #5C8ABE",
"%. c #7E8E9F",
"&. c #638DBD",
"*. c #668CBB",
"=. c #7091B3",
"-. c #7191B3",
";. c #7291B2",
":. c #7295BA",
">. c #7298BF",
",. c #7699BE",
"<. c #638FC1",
"1. c #7BA0C9",
"2. c #83827A",
"3. c #848987",
"4. c #868A87",
"5. c #828D97",
"6. c #828E95",
"7. c #838E97",
"8. c #82909B",
"9. c #80909C",
"0. c #81919E",
"q. c #919492",
"w. c #909799",
"e. c #939899",
"r. c #949B9F",
"t. c #8092A1",
"y. c #9B9FA0",
"u. c #9DA2A5",
"i. c #9CA2A8",
"p. c #A1A39F",
"a. c #A8A9A6",
"s. c #AAABA8",
"d. c #A5ADB5",
"f. c #A5B1BD",
"g. c #B0B1AD",
"h. c #B3B3AD",
"j. c #80A8D3",
"k. c #91A8C4",
"l. c #95B4D6",
"z. c #A3B0C0",
"x. c #AFB8C2",
"c. c #A9BACF",
"v. c #B0B8C2",
"b. c #B6BEC8",
"n. c #C5CFDD",
"m. c #CAD2DD",
"M. c #D4D6D5",
"N. c #D2D8DD",
"B. c #D7DADE",
"V. c #DBDDDD",
"C. c #CED9E8",
"Z. c #D0D8E3",
"A. c #E0E1E1",
"S. c #E6E7E7",
"D. c #E1E5EC",
"F. c #E4E9F1",
"G. c #E7EBF2",
"H. c None",
/* pixels */
"H.H.H.H.H.H.H.H.H.H.H.H.H.H.H.H.H.H.H.H.H.H.+ - * + H.H.H.H.H.H.",
"H.H.H.H.H.H.H.H.H.H.H.H.H.H.H.H.H.H.H.H.H.+ 6 h l e = H.H.H.H.H.",
"H.H.H.H.H.H.H.H.H.H.H.H.H.H.H.H.H.H.H.H.H.4 s B B k 4 H.H.H.H.H.",
"H.H.H.H.H.H.H.H.H.H.H.H.H.H.H.H.H.H.H.H.H.9 Z c e : * H.H.H.H.H.",
"H.H.H.H.H.H.H.H.H.H.H.H.H.H.H.H.H.H.H.H.8 r N r : + * H.H.H.H.H.",
"H.H.H.H.H.H.H.H.H.H.H.H.H.H.H.H.H.. 3 l a 9 w 4 $ * + H.H.H.H.H.",
"H.H.H.H.H.H.H.H.H.H.H.H.H.H.H.H.H.H.u C g + - - * $ H.H.H.H.H.H.",
"H.H.H.H.H.H.H.H.H.H.H.H.H.H.H.H.H.a.i.z 3 + + o H.H.H.H.H.H.H.H.",
"H.H.H.H.H.H.H.H.H.H.H.H.H.H.H.H.s.V.B.b y + * H.H.H.H.H.H.H.H.H.",
"H.H.H.H.H.H.H.H.H.H.H.H.H.H.H.p.S.G.m.x.v o * H.H.H.H.H.H.H.H.H.",
"H.H.H.H.H.H.H.H.H.H.H.H.H.H.h.A.D.Z.b.y.H.H.+ H.H.H.H.H.H.H.H.H.",
"H.H.H.H.H.H.H.H.H.H.H.H.H.h.M.F.n.x.u.H.H.H.H.H.H.H.H.H.H.H.H.H.",
"H.H.H.H.H.H.H.H.H.H.H.H.w.N.C.c.f.y.H.H.H.H.H.H.H.H.H.H.H.H.H.H.",
"H.H.H.H.H.H.H.H.H.H.H.0.,.*.[ ' 7.H.H.H.H.H.H.H.H.H.H.H.H.H.H.H.",
"H.H.H.H.H.H.H.H.H.H.0.-.O.J D ~ H.H.H.H.H.H.H.H.H.H.H.H.H.H.H.H.",
"H.H.H.H.H.H.H.H.H.6.:.+.G F ^ H.H.H.H.H.H.H.H.H.H.H.H.H.H.H.H.H.",
"H.H.H.H.H.H.H.H.0.>.( L U X.H.H.H.H.H.H.H.H.H.H.H.H.H.H.H.H.H.H.",
"H.H.H.H.H.H.H.t.-._ P E ^ H.H.H.H.H.H.H.H.H.H.H.H.H.H.H.H.H.H.H.",
"H.H.H.H.H.H.3.;.+.G E ^ H.H.H.H.H.H.H.H.H.H.H.H.H.H.H.H.H.H.H.H.",
"H.H.H.H.H.H.3.! L U X.H.H.H.H.H.H.H.H.H.H.H.H.H.H.H.H.H.H.H.H.H.",
"H.H.H.H.H.q.d.%.|  .H.H.H.H.H.H.H.H.H.H.H.H.H.H.H.H.H.H.H.H.H.H.",
"H.H.H.H.H.6.f.e.2.H.H.H.H.H.H.H.H.H.H.H.H.H.H.H.H.H.H.H.H.H.H.H.",
"H.H.H.H.H.T o.H.H.H.H.H.H.H.H.H.H.H.H.H.H.H.H.H.H.H.H.H.H.H.H.H.",
"H.H.H.H.M S x H.H.H.H.H.H.H.H.H.H.H.H.H.H.H.H.H.H.H.H.H.H.H.H.H.",
"H.H.H.H.R W > H.H.H.H.H.H.H.H.H.H.H.H.H.H.H.H.H.H.H.H.H.H.H.H.H.",
"H.H.H.H.' ` < H.H.H.H.H.H.H.H.H.H.H.H.H.H.H.H.H.H.H.H.H.H.H.H.H.",
"H.H.H.k.1.#.Q i H.H.H.H.H.H.H.H.H.H.H.H.H.H.H.H.H.H.H.H.H.H.H.H.",
"H.H.H.l.j.$./ p H.H.H.H.H.H.H.H.H.H.H.H.H.H.H.H.H.H.H.H.H.H.H.H.",
"H.H.f &.<./ Z < H.H.H.H.H.H.H.H.H.H.H.H.H.H.H.H.H.H.H.H.H.H.H.H.",
"H.H.H.n n m 1 H.H.H.H.H.H.H.H.H.H.H.H.H.H.H.H.H.H.H.H.H.H.H.H.H.",
"H.H.H.H.H.H.H.H.H.H.H.H.H.H.H.H.H.H.H.H.H.H.H.H.H.H.H.H.H.H.H.H.",
"H.H.H.H.H.H.H.H.H.H.H.H.H.H.H.H.H.H.H.H.H.H.H.H.H.H.H.H.H.H.H.H."
};
