/* XPM */
static char *IDI_ICON_OPEN_xpm[] = {
/* columns rows colors chars-per-pixel */
"32 32 245 2",
"   c black",
".  c gray29",
"X  c #4B4B4B",
"o  c gray30",
"O  c #4E4E4E",
"+  c gray31",
"@  c #505050",
"#  c #515151",
"$  c gray32",
"%  c #535353",
"&  c #555555",
"*  c #585858",
"=  c #5A5A5A",
"-  c #5B5B5B",
";  c gray36",
":  c #5D5D5D",
">  c gray37",
",  c #5F5F5F",
"<  c #5C6571",
"1  c #606060",
"2  c #626262",
"3  c #646464",
"4  c gray40",
"5  c #676767",
"6  c #686868",
"7  c DimGray",
"8  c #6A6A6A",
"9  c #6C6C6C",
"0  c gray43",
"q  c #6F6F6F",
"w  c #717171",
"e  c #727272",
"r  c #747474",
"t  c #767676",
"y  c #777777",
"u  c #797979",
"i  c gray49",
"p  c #7E7E7E",
"a  c gray50",
"s  c #3F6089",
"d  c #326098",
"f  c #3665A2",
"g  c #3665A3",
"h  c #3465A4",
"j  c #3565A4",
"k  c #3566A4",
"l  c #3666A5",
"z  c #3667A5",
"x  c #3769A6",
"c  c #3769A7",
"v  c #3969A6",
"b  c #3969A7",
"n  c #3A69A5",
"m  c #3D6AA2",
"M  c #3B6CA8",
"N  c #3D6DAA",
"B  c #3C6EAA",
"V  c #4D6686",
"C  c #436692",
"Z  c #406EA6",
"A  c #4C75AA",
"S  c #4E7AB1",
"D  c #537DB0",
"F  c #5483BA",
"G  c #5782B8",
"H  c #5986BC",
"J  c #6082AD",
"K  c #638CBD",
"L  c #648DBE",
"P  c #768EAE",
"I  c #5C8DC3",
"U  c #6093CA",
"Y  c #6194C9",
"T  c #6094CA",
"R  c #6194CA",
"E  c #6195CA",
"W  c #6295CA",
"Q  c #6697CB",
"!  c #6698CB",
"~  c #6798CB",
"^  c #6798CC",
"/  c #6D92C0",
"(  c #6898CC",
")  c #6A9BCD",
"_  c #6B9ACD",
"`  c #6B9BCD",
"'  c #6C9ACD",
"]  c #6C9BCD",
"[  c #6D9BCD",
"{  c #6D9CCD",
"}  c #739BC9",
"|  c #709ECE",
" . c #719ECE",
".. c #729FCF",
"X. c #739FCF",
"o. c #779DCA",
"O. c #73A0CF",
"+. c #74A1CF",
"@. c #77A0CD",
"#. c #7FA1CA",
"$. c #7DA3CF",
"%. c #74A0D0",
"&. c #74A1D0",
"*. c #75A1D0",
"=. c #75A1D1",
"-. c #76A2D0",
";. c #77A2D1",
":. c #77A3D1",
">. c #78A3D1",
",. c #79A4D1",
"<. c #7AA4D2",
"1. c #7AA5D2",
"2. c #7BA5D2",
"3. c #7BA6D2",
"4. c #7CA6D2",
"5. c #7DA6D3",
"6. c #7DA7D3",
"7. c #7EA7D3",
"8. c #7FA8D3",
"9. c #7FA8D4",
"0. c #818181",
"q. c gray52",
"w. c #868686",
"e. c #898989",
"r. c gray54",
"t. c #8B8B8B",
"y. c #8D8D8D",
"u. c gray56",
"i. c #909090",
"p. c #929292",
"a. c #939393",
"s. c gray58",
"d. c #9B9B9B",
"f. c #8898AD",
"g. c #8FA3BC",
"h. c #98A1AD",
"j. c #A0A0A0",
"k. c gray63",
"l. c #A2A2A2",
"z. c gray64",
"x. c #A4A4A4",
"c. c gray65",
"v. c #A7A7A7",
"b. c gray66",
"n. c #A9A9A9",
"m. c gray67",
"M. c #ACACAC",
"N. c gray68",
"B. c #AEAEAE",
"V. c #AFAFAF",
"C. c gray69",
"Z. c #B1B1B1",
"A. c gray70",
"S. c #B3B5B7",
"D. c #B4B4B4",
"F. c #B6B6B6",
"G. c #B7B7B7",
"H. c gray72",
"J. c #B9B9B9",
"K. c gray73",
"L. c #BBBBBB",
"P. c #BCBCBC",
"I. c gray74",
"U. c gray",
"Y. c gray75",
"T. c #80A8D4",
"R. c #80A9D4",
"E. c #81A9D4",
"W. c #81AAD4",
"Q. c #82AAD4",
"!. c #82ABD5",
"~. c #83AAD5",
"^. c #83ABD5",
"/. c #84ABD5",
"(. c #86ACD6",
"). c #8AAAD1",
"_. c #88AED6",
"`. c #8FAFD4",
"'. c #8BB1D7",
"]. c #8EB2D9",
"[. c #8FB2D9",
"{. c #90B3D9",
"}. c #96B6D9",
"|. c #96B7DC",
" X c #9BB9DA",
".X c #9BBBDD",
"XX c #9DBCDE",
"oX c #AEB7C2",
"OX c #A1BFDF",
"+X c #A5C1DF",
"@X c #A3C0E0",
"#X c #A9C5E2",
"$X c #B1CAE4",
"%X c #BBCFE6",
"&X c #C0C0C0",
"*X c #C1C1C1",
"=X c gray76",
"-X c #C3C3C3",
";X c #C3C3C4",
":X c gray77",
">X c #C5C5C5",
",X c gray78",
"<X c #C8C8C8",
"1X c gray79",
"2X c #CACACA",
"3X c gray80",
"4X c #CECECE",
"5X c gray81",
"6X c gray82",
"7X c #D2D2D2",
"8X c LightGray",
"9X c gray83",
"0X c #D5D5D5",
"qX c gray84",
"wX c #D7D7D7",
"eX c #D8D8D8",
"rX c gray85",
"tX c #DADADA",
"yX c #DDDDDD",
"uX c gray87",
"iX c #C2D6EA",
"pX c #C3D6EA",
"aX c #C4D6EB",
"sX c #C4D7EB",
"dX c gray88",
"fX c #E1E1E1",
"gX c #E2E2E2",
"hX c #E6E6E6",
"jX c #E7E7E7",
"kX c gray91",
"lX c #E9E9E9",
"zX c #EAEAEA",
"xX c gray92",
"cX c #ECECEC",
"vX c gray94",
"bX c #F3F3F3",
"nX c #F4F4F4",
"mX c gray96",
"MX c #F6F6F6",
"NX c gray97",
"BX c #F8F8F8",
"VX c #F9F9F9",
"CX c gray98",
"ZX c #FDFDFD",
"AX c None",
/* pixels */
"AXAXAXAXAXAXAXAXAXAXAXAXAXAXAXAXAXAXAXAXAXAXAXAXAXAXAXAXAXAXAXAX",
"AXAXAXAXAXAXAXAXX + % + + % % & = = 1 1 5 7 7 7 q q w t t u AXAX",
"AXAXAXAXAXAXAXAX& ZXVXVXmXVXmXmXmXmXmXvXmXvXmXVXVXVXVXVXVXt AXAX",
"AXAX= = = = = = % ZXVXVXVXVXVXVXVXVXVXVXVXVXVXVXVXVXVXVXmXt AXAX",
"AX= eX<X<X<X<X<X% ZXjXd.l.d.l.l.l.l.l.l.l.l.l.l.l.l.<XVXkXt AXAX",
"AX> H.s.s.s.s.t.t VXjXjXjXjXjXjXkXkXkXkXkXkXkXxXxXkXxXkX7Xt AXAX",
"AX1 ,Xv.v.b.b.w.v.vXeXl.l.l.l.l.l.l.l.l.l.l.l.l.fXfXfXjXZ.AXAXAX",
"AXAXG.s.s.s.s.5 uXfX7X8X7X7X9X8X9X9X9X9X9XeX9XeXeXeX9XeXa.AXAXAX",
"AXAXI.b.v.v.l.= mX<XN.l.l.l.l.l.j.l.l.l.j.l.j.j.l.l.<X4Xq AXAXAX",
"AXAXb.d.a.a.t l.fXI.*XI.Y.*XI.*X*X*X*X*X*X;X;X,X*X,X,XZ.5 AXAXAX",
"AXAXl.G.v.v.> fXI.N.l.l.l.l.l.l.l.j.l.l.l.v.K.K.H.I.I.w.AXAXAXAX",
"AXAXt.l.a.w.q uXb.b.N.b.b.N.N.N.N.N.N.V.V.V.V.V.Z.Z.N.> AXAXAXAX",
"AXAX0.H.l.w *XS.l l l h h h l h l l h h h h h h h h h h l h h h ",
"AXAXw v.t.% eXh.D pXsXsXsXpXsXpXsXsXsXpXsXpXsXsXpXpXpXpXpXpX%Xx ",
"AXAX5 I.t.u 4Xf./ $X/./.^././.^.^.^.^.^.^.7.7.^.^.7.^.7.^..X).AX",
"AXAX= b.7 G.H.P #.@X/./.^.^.^.^.^.^.^.T.^.7.^.^.7.7.7.7.2.OXK AX",
"AXAX> G.3 *XL.J [.|.^.^.^.^.^.^.7.^.7.7.7.7.7.7.7.7.7.1.+.#XN AX",
"AXAX> d.* ,X*XA  X'.7.^.7.7.7.7.7.7.7.7.7.7.7.7.7.7.1...7.|.l AX",
"AXAXAXv.+ 7X-Xx +XQ.7.7.7.7.7.7.7.7.7.7.7.7.2.7.1.+.....(.o.AXAX",
"AXAXAXa.o 8XoXS XX7.^.7.7.7.6.7.7.7.2.7.2.2.:.+.........[.G AXAX",
"AXAXAXt.+ 2Xg.K [.7.7.7.2.2.2.+.+.+.+.+.+.%.............[.b AXAX",
"AXAXAX0.o o s } /.7.:.X.X.X.X.X.......................2.@.c AXAX",
"AXAXAXt t.r m $.+.X.X.X.X.X.X. . . . . .....] .. .] ..2.H AXAXAX",
"AXAXAX7 p < Z :.] { { { ] ] ] ] ' ' ] ] _ _ ] ] ] ] ' +.M AXAXAX",
"AXAXAX> p C G _ _ ~ ^ _ ~ ^ _ ^ ~ ( ~ ~ ~ Q Q ^ ^ ^ ^ I l AXAXAX",
"AXAXAX+ V x T T Q T T T T T T T T T T T T T T T T T T N AXAXAXAX",
"AXAXAXo h l f f f f f f f f f f f f f f f f f f f l f d AXAXAXAX",
"AXAXAXAXAXAXAXAXAXAXAXAXAXAXAXAXAXAXAXAXAXAXAXAXAXAXAXAXAXAXAXAX",
"AXAXAXAXAXAXAXAXAXAXAXAXAXAXAXAXAXAXAXAXAXAXAXAXAXAXAXAXAXAXAXAX",
"AXAXAXAXAXAXAXAXAXAXAXAXAXAXAXAXAXAXAXAXAXAXAXAXAXAXAXAXAXAXAXAX",
"AXAXAXAXAXAXAXAXAXAXAXAXAXAXAXAXAXAXAXAXAXAXAXAXAXAXAXAXAXAXAXAX",
"AXAXAXAXAXAXAXAXAXAXAXAXAXAXAXAXAXAXAXAXAXAXAXAXAXAXAXAXAXAXAXAX"
};
