/* XPM */
static char *IDI_ICON_SAVE_xpm[] = {
/* columns rows colors chars-per-pixel */
"32 32 256 2",
"   c black",
".  c #505050",
"X  c #515151",
"o  c gray32",
"O  c #535353",
"+  c gray33",
"@  c #555555",
"#  c gray34",
"$  c #585858",
"%  c gray35",
"&  c #5B5B5B",
"*  c gray36",
"=  c #5F5F5F",
"-  c #4D5766",
";  c #626262",
":  c #676767",
">  c DimGray",
",  c #7E7E7E",
"<  c gray50",
"1  c #1F4A87",
"2  c #1F4C89",
"3  c #204B88",
"4  c #214C89",
"5  c #214D8A",
"6  c #224C88",
"7  c #234E89",
"8  c #284E83",
"9  c #2A528D",
"0  c #2B538C",
"q  c #2B548D",
"w  c #2B558F",
"e  c #2D568F",
"r  c #2F578E",
"t  c #305991",
"y  c #315891",
"u  c #315992",
"i  c #325A91",
"p  c #325C93",
"a  c #345A90",
"s  c #355D95",
"d  c #395E93",
"f  c #385E95",
"g  c #3C6093",
"h  c #3A6198",
"j  c #3C6298",
"k  c #3364A4",
"l  c #3666A5",
"z  c #3A69A7",
"x  c #3D6CA9",
"c  c #41669C",
"v  c #446798",
"b  c #42699C",
"n  c #426A9F",
"m  c #486A9B",
"M  c #58769F",
"N  c #446BA0",
"B  c #476EA2",
"V  c #416FAA",
"C  c #4370AB",
"Z  c #4A70A2",
"A  c #4D72A6",
"S  c #4A76AE",
"D  c #4D78B0",
"F  c #4E79B0",
"G  c #5377A7",
"H  c #557AAC",
"J  c #5A78A3",
"K  c #5B7CAB",
"L  c #597CAD",
"P  c #5B80AF",
"I  c #5880B4",
"U  c #5981B5",
"Y  c #5A82B5",
"T  c #5B82B6",
"R  c #5E82B1",
"E  c #5C83B6",
"W  c #5D84B7",
"Q  c #5F85B8",
"!  c #6C87AC",
"~  c #6F89AD",
"^  c #6182B0",
"/  c #6183B1",
"(  c #6283B2",
")  c #6587B3",
"_  c #6187B8",
"`  c #6388B9",
"'  c #658ABA",
"]  c #6889B6",
"[  c #698AB5",
"{  c #6A8BB7",
"}  c #6C8CB6",
"|  c #698DBC",
" . c #6A8EBD",
".. c #6B8FBD",
"X. c #6C8FBE",
"o. c #6D90BE",
"O. c #7092BF",
"+. c #7193BF",
"@. c #7493BE",
"#. c #7E93B1",
"$. c #7395C1",
"%. c #7797C2",
"&. c #7998C0",
"*. c #7A99C2",
"=. c #7B9AC3",
"-. c #7B9BC4",
";. c #7C99C1",
":. c #7D9CC4",
">. c #7F9DC4",
",. c #7E9DC6",
"<. c #848484",
"1. c gray53",
"2. c gray54",
"3. c gray55",
"4. c #8E8E8E",
"5. c gray56",
"6. c #909090",
"7. c gray57",
"8. c #929292",
"9. c #939393",
"0. c gray58",
"q. c #959595",
"w. c gray59",
"e. c #979797",
"r. c #989898",
"t. c gray60",
"y. c #9D9D9D",
"u. c gray62",
"i. c #9F9F9F",
"p. c #869BB9",
"a. c #A0A0A0",
"s. c gray63",
"d. c #A2A2A2",
"f. c gray64",
"g. c #A4A4A4",
"h. c #A5A5A5",
"j. c gray65",
"k. c #A7A7A7",
"l. c gray66",
"z. c #A9A9A9",
"x. c #AAAAAA",
"c. c gray67",
"v. c #ACACAC",
"b. c gray68",
"n. c #AEAEAE",
"m. c #AFAFAF",
"M. c #A2ABB8",
"N. c #AEB4BD",
"B. c gray69",
"V. c #B1B1B1",
"C. c #B2B2B2",
"Z. c gray70",
"A. c #B4B4B4",
"S. c gray71",
"D. c #B6B6B6",
"F. c #B7B7B7",
"G. c #B0B5BB",
"H. c gray72",
"J. c #B9B9B9",
"K. c gray73",
"L. c #BBBBBB",
"P. c gray74",
"I. c gray75",
"U. c #809FC6",
"Y. c #82A0C7",
"T. c #86A2C7",
"R. c #84A1C8",
"E. c #86A3C9",
"W. c #89A5CB",
"Q. c #89A6C9",
"!. c #8AA5CA",
"~. c #8AA6CB",
"^. c #8BA7CB",
"/. c #8CA7CC",
"(. c #8DA8CC",
"). c #8EA9CC",
"_. c #90ABCE",
"`. c #91ACCE",
"'. c #93ADCF",
"]. c #94AFCF",
"[. c #95AECF",
"{. c #9CADC3",
"}. c #96AFD0",
"|. c #97B0D0",
" X c #98B1D1",
".X c #99B2D1",
"XX c #A2B0C2",
"oX c #AFBCCE",
"OX c #BABFC6",
"+X c #BBC3CE",
"@X c #C0C0C0",
"#X c #C1C1C1",
"$X c gray76",
"%X c #C3C3C3",
"&X c #C1C3C5",
"*X c gray77",
"=X c #C5C5C5",
"-X c #C6C6C6",
";X c gray78",
":X c #C8C8C8",
">X c gray79",
",X c #CACACA",
"<X c #CBCBCB",
"1X c gray80",
"2X c #CDCDCD",
"3X c #CECECE",
"4X c gray81",
"5X c #CACDD2",
"6X c #CCCED2",
"7X c #CDD0D5",
"8X c #D0D0D0",
"9X c gray82",
"0X c #D2D2D2",
"qX c LightGray",
"wX c gray83",
"eX c #D5D5D5",
"rX c gray84",
"tX c #D7D7D7",
"yX c #D8D8D8",
"uX c gray85",
"iX c #D8D9DA",
"pX c #D9DADB",
"aX c #DADADA",
"sX c gray86",
"dX c gainsboro",
"fX c #DDDDDD",
"gX c gray87",
"hX c #DFDFDF",
"jX c gray88",
"kX c #E1E1E1",
"lX c #E0E1E2",
"zX c #E2E2E2",
"xX c gray89",
"cX c #E4E4E4",
"vX c gray90",
"bX c #E7E7E7",
"nX c gray91",
"mX c #E9E9E9",
"MX c #EAEAEA",
"NX c gray92",
"BX c #ECECEC",
"VX c gray93",
"CX c gray94",
"ZX c gray95",
"AX c #F3F3F3",
"SX c #F0F2F5",
"DX c #F4F4F4",
"FX c gray96",
"GX c #F6F6F6",
"HX c gray97",
"JX c #F8F8F8",
"KX c gray98",
"LX c gray99",
"PX c #FDFDFD",
"IX c #FEFEFE",
"UX c None",
/* pixels */
"UXUXUXUXUXUXUXUXUXUXUXUXUXUXUXUXUXUXUXUXUXUXUXUXUXUXUXUXUXUXUXUX",
"UXUXUXUXUXUXUXUXUXUX6 7 7 UXUXUXUXUXUXUXUXUXUXUXUXUXUXUXUXUXUXUX",
"UXUXUXUXUXUXUXUXw L %.E.E.{ s 2 UXUXUXUXUXUXUXUXUXUXUXUXUXUXUXUX",
"UXUXUXUXUXUX3 G !.~.).}.}.}..X{ 6 UXUXUXUXUXUXUXUXUXUXUXUXUXUXUX",
"UXUXUXUXUX1 UXK j B ) }.'.~.~.].:.6 UXUXUXUXUXUXUXUXUXUXUXUXUXUX",
"UXUXUXUXUXi e UXUXUXUXu E.).E.,.).) UXUXUXUXUXUXUXUXUXUXUXUXUXUX",
"UXUXUXUX1 6 UXUXUXUXUXUXi ).,.-.,.).i UXUXUXUXUXUXUXUXUXUXUXUXUX",
"UXUXUXUXUXUXUXUXUXUXUXUXUX{ Y.%.$.E.( UXUXUXUXUXUXUXUXUXUXUXUXUX",
"UXUXUXUXUXUXUX& & = & & - v ~.$.X.%.>.8 & & & & & UXUXUXUXUXUXUX",
"UXUXUXUXUXUXm.KXKXKXKXKXSXi ~.X.{  .).9 GXGXZXZXCXw.UXUXUXUXUXUX",
"UXUXUXUXUX@ GXoX1 3 7 6 1 6 ).' ' _ [.3 3 3 3 3 ~ hXO UXUXUXUXUX",
"UXUXUXUXUXw.KXcX{.s =.E.E.~.).Q Q U [.[..X.XP m pXVX, UXUXUXUXUX",
"UXUXUXUXUXhXVXkXcXp.h =.' T U U L F C x  .] a 5XyXkX*XUXUXUXUXUX",
"UXUXUXUX> KXkXcXbXbX~ j -.U S V l k k T @.e +XhXyXyXmX= UXUXUXUX",
"UXUXUXUXP.CXkXcXcXcXkXJ N  .z k k k D ,.i XXhXsXsXyXcXf.UXUXUXUX",
"UXUXUX@ CXcXcXcXxXkXhXiXm B o.z k x Y.h #.tXyXyXhXyXyXyXO UXUXUX",
"UXUXUX9.GXyXbXkXhXyXeXeX3Xd H @.x ,.Z J 4X9XqXwXeXhXeXcX< UXUXUX",
"UXUXUXyXbXhXxXhXeXeXeXwX4X+Xe P /.L g +X,X1X3X4XtXsX9XsXP.UXUXUX",
"UXUX> GXhXtXyXhXhXtXwX9X3X:XN.9 A q A.*X;X,X3XyXyX3X4XwXkX= UXUX",
"UXUXA.mXhXyXyXeXyXkXhXtX4X,X,XM.2 M.*X,X9XtXyX9X4X4XqXtXhXu.UXUX",
"UXO mXkXHXbXyXyXtXeXeXyXhXhXyXyX7XyXsXyXtX9X4X4X9XwXkXGXyXwX# UX",
"UXO GXhXhXyXhXsXhXsXhXyXyXeXeXeXwXeXeXtXtXtXyXtXyXtXtXtXeXmX@ UX",
"UXO VXkXhXkXhXkXhXhXhXhXhXyXhXyXsXsXyXyXsXyXtXtXtXeXeXeXeX9XO UX",
"UXO VXK.K.K.K.F.A.C.C.C.m.m.m.m.v.v.c.l.l.j.j.g.f.a.a.i.u.K.O UX",
"UXO mXK.K.1.2.9.e.a.j.j.c.m.c.m.m.c.e.*Xe.#Xw.#X9.#X9.P.u.F.O UX",
"UXO mXK.K.1.1.9.e.u.a.c.c.c.m.c.c.m.e.*Xw.#Xw.#X9.#X5.I.i.A.O UX",
"UXO cXK.K.4.2.9.e.u.a.j.c.c.c.m.c.j.e.*Xw.*X9.#X5.#X4.I.u.C.O UX",
"UXO cXP.A.K.A.K.C.C.m.m.c.c.c.c.c.c.e.*Xw.#X9.#X5.I.5.I.a.m.O UX",
"UXO *XkXkXhXyXhXyXyXeXeX9X3X3X,X*X,X#X#X#XP.K.K.A.A.C.C.m.9.O UX",
"UXUXO O O O O O O O O O O O O O O O O @ O O O O O O O O O O UXUX",
"UXUXUXUXUXUXUXUXUXUXUXUXUXUXUXUXUXUXUXUXUXUXUXUXUXUXUXUXUXUXUXUX",
"UXUXUXUXUXUXUXUXUXUXUXUXUXUXUXUXUXUXUXUXUXUXUXUXUXUXUXUXUXUXUXUX"
};
