/* XPM */
static const char *IDI_ICON_NEW_xpm[] = {
/* columns rows colors chars-per-pixel */
"32 32 169 2",
"   c black",
".  c #4C4C4C",
"X  c #4E4E4E",
"o  c #505050",
"O  c #515151",
"+  c gray32",
"@  c #535353",
"#  c gray33",
"$  c gray34",
"%  c #5D5C51",
"&  c #585858",
"*  c #5A5A5A",
"=  c gray37",
"-  c gray38",
";  c #646464",
":  c #686868",
">  c gray42",
",  c gray43",
"<  c #727272",
"1  c gray46",
"2  c gray47",
"3  c #7B7B7B",
"4  c #7E7E7E",
"5  c #918D3C",
"6  c #ADA83D",
"7  c #AFAA3F",
"8  c #B6B032",
"9  c #BCB635",
"0  c #95925B",
"q  c #84836C",
"w  c #A19D4D",
"e  c #AAA540",
"r  c #ABA644",
"t  c #D7CF2A",
"y  c #D8D02B",
"u  c #FFF41F",
"i  c #EEE532",
"p  c #FFF52D",
"a  c #FCF237",
"s  c #FDF338",
"d  c #FEF439",
"f  c #FEF43A",
"g  c #F1EA52",
"h  c #F6EF5E",
"j  c #FCF340",
"k  c #FDF441",
"l  c #F9F14C",
"z  c #FAF24C",
"x  c #F7F05E",
"c  c #F8F056",
"v  c #F9F157",
"b  c #FDF55B",
"n  c #FDF65E",
"m  c #FDF65F",
"M  c #FEF65C",
"N  c #FEF75F",
"B  c #F2EC66",
"V  c #F4ED66",
"C  c #F4EE70",
"Z  c #F7F068",
"A  c #F9F260",
"S  c #FEF760",
"D  c #FDF665",
"F  c #FDF666",
"G  c #F6F072",
"H  c #F7F173",
"J  c #FDF771",
"K  c #FDF77A",
"L  c #818181",
"P  c gray51",
"I  c #848484",
"U  c #868686",
"Y  c gray53",
"T  c #898989",
"R  c gray54",
"E  c #8D8D8D",
"W  c gray56",
"Q  c #909090",
"!  c gray57",
"~  c #939393",
"^  c gray58",
"/  c #979797",
"(  c #989898",
")  c #9A9A9A",
"_  c #9B9B9B",
"`  c #9D9D9D",
"'  c #9F9F9F",
"]  c #B1B1B1",
"[  c #B2B2B2",
"{  c #EEEA99",
"}  c #F2ED82",
"|  c #F3EE83",
" . c #F0EB89",
".. c #F1EC8A",
"X. c #F2ED8B",
"o. c #F4EF8D",
"O. c #F1ED9C",
"+. c #F3EF9E",
"@. c #F5F085",
"#. c #F5F08E",
"$. c #FDF787",
"%. c #FEF888",
"&. c #FFF988",
"*. c #FFF989",
"=. c #FCF795",
"-. c #FDF896",
";. c #EAE7B0",
":. c #EDEAB3",
">. c #EBE9B9",
",. c #EDEBBB",
"<. c #F1EEAD",
"1. c #F0EDB6",
"2. c #F1EEB7",
"3. c #F2EFB8",
"4. c #FEF9A3",
"5. c #FEF9A4",
"6. c #FFFAA4",
"7. c #F2F0BE",
"8. c #FCF9B9",
"9. c gray86",
"0. c gainsboro",
"q. c #DDDDDD",
"w. c gray87",
"e. c #DFDFDF",
"r. c #E7E5C7",
"t. c #EDEBCD",
"y. c #E4E4DD",
"u. c #EEEDD8",
"i. c #EEEDDA",
"p. c #F0EFDA",
"a. c #F1F0C4",
"s. c #FAF9D7",
"d. c #FEFCD5",
"f. c #FEFCD6",
"g. c gray88",
"h. c #E1E1E1",
"j. c #E2E2E2",
"k. c gray89",
"l. c #E4E4E4",
"z. c gray90",
"x. c #E6E6E6",
"c. c #E7E7E7",
"v. c #EBEBE4",
"b. c gray91",
"n. c #E9E9E9",
"m. c #EAEAEA",
"M. c gray92",
"N. c #EEEEEB",
"B. c #ECECEC",
"V. c gray93",
"C. c #EEEEEE",
"Z. c #EFEFEF",
"A. c #FBFAE3",
"S. c gray94",
"D. c #F1F1F1",
"F. c gray95",
"G. c #F3F3F3",
"H. c #F4F4F4",
"J. c gray96",
"K. c #F6F6F6",
"L. c gray97",
"P. c #F8F8F8",
"I. c #F9F9F9",
"U. c gray98",
"Y. c #FBFBFB",
"T. c gray99",
"R. c #FDFDFD",
"E. c #FEFEFE",
"W. c None",
/* pixels */
"W.W.W.W.W.W.W.W.W.W.W.W.W.W.W.W.W.W.W.W.W.W.W.W.W.W.W.W.W.W.W.W.",
"W.W.W.W.W.W.W.W.W.W.W.W.W.W.W.W.W.W.W.W.W.W.W.W.W.W.W.W.W.W.W.W.",
"W.W.W.W.W._ _ ` ` ` _ / / E E Y Y L 4 3 q 0 w r r 6 6 W.W.W.W.W.",
"W.W.W.W._ E.E.E.I.E.E.E.E.E.E.E.E.E.I.A.8.-.K F M M F 9 W.W.W.W.",
"W.W.W.W.! E.w.w.9.x.e.x.e.x.e.x.e.x.y.;. .V l a j j f y W.W.W.W.",
"W.W.W.W.! E.w.w.w.x.e.e.e.e.x.e.e.x.r.{ C l f m J J N i W.W.W.W.",
"W.W.W.W.! E.e.e.w.c.x.e.x.x.x.x.x.x.>...h a m $.4.4.*.g u W.W.W.",
"W.W.W.W.! E.e.e.e.c.e.e.x.x.x.x.x.x.:.} c j J 5.d.d.5.B p W.W.W.",
"W.W.W.W.E E.w.x.w.c.x.x.x.x.x.c.c.c.:.| c j J 4.d.d.6.B p W.W.W.",
"W.W.W.W.T E.e.e.w.c.x.x.c.c.c.c.c.c.,...x a N *.5.5.*.g u W.W.W.",
"W.W.W.W.Y E.e.x.e.c.x.x.c.c.c.c.M.c.t.+.H z j N J J S i W.W.W.W.",
"W.W.W.W.L E.x.] x.c.x.x.c.c.B.c.c.B.v.:.#.Z z d j j f y W.W.W.W.",
"W.W.W.W.L E.e.c.e.B.c.c.c.B.c.B.B.B.B.u.<.#.H x c c F 8 W.W.W.W.",
"W.W.W.W.4 E.x.x.e.B.B.c.B.c.B.B.B.B.Z.B.u.3.+.#.@.@.=.5 W.W.W.W.",
"W.W.W.W.3 E.e.x.e.B.c.c.c.c.B.B.B.Z.B.Z.B.N.p.a.7.7.s.% W.W.W.W.",
"W.W.W.W.1 E.x.x.x.B.c.B.B.B.B.B.B.B.Z.S.Z.Z.Z.Z.Z.Z.I.# W.W.W.W.",
"W.W.W.W.< E.c.c.x.B.B.c.B.B.B.B.Z.Z.S.S.S.S.S.S.S.S.L.O W.W.W.W.",
"W.W.W.W.< E.c.c.e.B.B.B.B.B.S.S.S.S.S.S.S.G.G.S.S.S.I.o W.W.W.W.",
"W.W.W.W., I.c.c.x.B.c.B.B.B.B.S.S.S.S.H.S.H.H.G.H.S.I.X W.W.W.W.",
"W.W.W.W.> E.c.c.x.S.B.B.B.S.S.S.S.G.S.H.G.H.H.H.H.G.I.. W.W.W.W.",
"W.W.W.W.> E.x.[ x.B.B.B.B.S.S.S.G.G.H.H.H.H.H.H.H.S.L.. W.W.W.W.",
"W.W.W.W.= E.x.c.x.B.B.B.B.S.S.S.S.G.H.H.H.L.L.H.H.G.I.. W.W.W.W.",
"W.W.W.W.= I.c.c.x.B.B.B.S.S.S.S.H.H.H.L.L.H.I.I.I.H.I.. W.W.W.W.",
"W.W.W.W.= E.B.c.x.S.B.S.B.S.S.H.H.H.H.L.L.I.I.H.I.H.L.X W.W.W.W.",
"W.W.W.W.& I.c.c.x.B.B.B.S.S.S.H.S.H.H.H.I.I.I.I.L.H.I.. W.W.W.W.",
"W.W.W.W.& I.c.B.x.S.B.B.B.S.S.S.H.H.I.I.I.I.I.I.H.I.L.. W.W.W.W.",
"W.W.W.W.$ I.c.c.x.B.B.B.S.S.S.H.H.H.I.H.H.I.I.H.I.I.I.. W.W.W.W.",
"W.W.W.W.O I.c.B.x.S.B.B.B.S.S.H.H.H.H.H.I.H.I.I.H.H.I.. W.W.W.W.",
"W.W.W.W.O I.H.I.H.I.H.I.I.I.H.I.H.I.I.H.I.H.I.H.I.H.I.O W.W.W.W.",
"W.W.W.W.W.& & & & & & & $ & & & & & & & & & & & & & & W.W.W.W.W.",
"W.W.W.W.W.W.W.W.W.W.W.W.W.W.W.W.W.W.W.W.W.W.W.W.W.W.W.W.W.W.W.W.",
"W.W.W.W.W.W.W.W.W.W.W.W.W.W.W.W.W.W.W.W.W.W.W.W.W.W.W.W.W.W.W.W."
};
