/* XPM */
static char *IDI_ICON_DRAW_BRUSH_xpm[] = {
/* columns rows colors chars-per-pixel */
"32 32 105 2",
"   c black",
".  c #060606",
"X  c #151515",
"o  c gray10",
"O  c #222222",
"+  c #282828",
"@  c #2A2A2A",
"#  c #2F2F2F",
"$  c gray19",
"%  c gray20",
"&  c #3E3E3E",
"*  c #683907",
"=  c #683A07",
"-  c #693A07",
";  c #683B09",
":  c #693A08",
">  c #6A3B08",
",  c #6C3B08",
"<  c #6C3C08",
"1  c #6F3D08",
"2  c #713E08",
"3  c #713E09",
"4  c #744008",
"5  c #774109",
"6  c #7A4309",
"7  c #7D450A",
"8  c #414141",
"9  c gray29",
"0  c #50504F",
"q  c #515151",
"w  c gray32",
"e  c #545453",
"r  c gray33",
"t  c #565656",
"y  c #646464",
"u  c #656565",
"i  c #80470A",
"p  c #84490B",
"a  c #894C0A",
"s  c #8B4D0A",
"d  c #8B4E0B",
"f  c #8C4D0B",
"g  c #93510B",
"h  c #92500C",
"j  c #94520C",
"k  c #95520C",
"l  c #99540C",
"z  c #9A550D",
"x  c #915515",
"c  c #9A5F20",
"v  c #A2590D",
"b  c #A25A0D",
"n  c #A75D0D",
"m  c #A95D0E",
"M  c #AA5F0E",
"N  c #AC5F0E",
"B  c #B0610F",
"V  c #B3630E",
"C  c #B3630F",
"Z  c #B5640F",
"A  c #B9660F",
"S  c #BA670F",
"D  c #BC680F",
"F  c #BD6810",
"G  c #AB6F2F",
"H  c #C16B10",
"J  c #C46C10",
"K  c #CD7111",
"L  c #D37411",
"P  c #D87711",
"I  c #DD7A12",
"U  c #E37D12",
"Y  c #868278",
"T  c #E88013",
"R  c #8B8B84",
"E  c #8E8A81",
"W  c #8C8E8A",
"Q  c #8D8F8B",
"!  c #8E8F8B",
"~  c #8E908C",
"^  c #8F918E",
"/  c #91938E",
"(  c #99968D",
")  c #9A9B98",
"_  c #ACADAB",
"`  c #AEAEAE",
"'  c #B4B5B3",
"]  c #B9BAB9",
"[  c #BABBBA",
"{  c #BFBFBD",
"}  c #BFC0BF",
"|  c gray76",
" . c gray77",
".. c #C6C6C5",
"X. c #D5D5D5",
"o. c gray84",
"O. c #D8D8D8",
"+. c #DADAD9",
"@. c #DDDDDD",
"#. c gray88",
"$. c #E4E4E4",
"%. c #E6E6E6",
"&. c #E9E9E9",
"*. c gray93",
"=. c None",
/* pixels */
"=.=.=.=.=.=.=.=.=.=.=.=.=.=.=.=.=.=.=.=.=.=.=.=.=.=.=.=.=.=.=.=.",
"=.=.=.=.=.=.=.=.=.=.=.=.=.=.=.=.=.=.=.=.=.=.=.=.=.=.=.=.=.=.=.=.",
"=.=.=.=.=.=.=.=.=.=.=.=.=.=.=.=.=.=.=.=.=.=.=.=.=.=.=.=.* x =.=.",
"=.=.=.=.=.=.=.=.=.=.=.=.=.=.=.=.=.=.=.=.=.=.=.=.=.=.=.* j l =.=.",
"=.=.=.=.=.=.=.=.=.=.=.=.=.=.=.=.=.=.=.=.=.=.=.=.=.=.=.a N =.=.=.",
"=.=.=.=.=.=.=.=.=.=.=.=.=.=.=.=.=.=.=.=.=.=.=.=.=.=.p Z 4 =.=.=.",
"=.=.=.=.=.=.=.=.=.=.=.=.=.=.=.=.=.=.=.=.=.=.=.=.=.7 B a =.=.=.=.",
"=.=.=.=.=.=.=.=.=.=.=.=.=.=.=.=.=.=.=.=.=.=.=.=.4 M N =.=.=.=.=.",
"=.=.=.=.=.=.=.=.=.=.=.=.=.=.=.=.=.=.=.=.=.=.=.3 b J 3 =.=.=.=.=.",
"=.=.=.=.=.=.=.=.=.=.=.=.=.=.=.=.=.=.=.=.=.=.< l K i =.=.=.=.=.=.",
"=.=.=.=.=.=.=.=.=.=.=.=.=.=.=.=.=.=.=.=.=.- A L j =.=.=.=.=.=.=.",
"=.=.=.=.=.=.=.=.=.=.=.=.=.=.=.=.=.=.=.=.- Z P M , =.=.=.=.=.=.=.",
"=.=.=.=.=.=.=.=.=.=.=.=.=.=.=.=.=.=.=.- M I Z 1 =.=.=.=.=.=.=.=.",
"=.=.=.=.=.=.=.=.=.=.=.=.=.=.=.=.=.=.- b U D 6 =.=.=.=.=.=.=.=.=.",
"=.=.=.=.=.=.=.=.=.=.=.=.=.=.=.=.=.- l T H f =.=.=.=.=.=.=.=.=.=.",
"=.=.=.=.=.=.=.=.=.=.=.=.=.=.=.=.- h F C f =.=.=.=.=.=.=.=.=.=.=.",
"=.=.=.=.=.=.=.=.=.=.=.=.=.=.=.R R G S j * =.=.=.=.=.=.=.=.=.=.=.",
"=.=.=.=.=.=.=.=.=.=.=.=.=.=.=. .#.( c - =.=.=.=.=.=.=.=.=.=.=.=.",
"=.=.=.=.=.=.=.=.=.=.=.=.=.=.` X.@.[ Y =.=.=.=.=.=.=.=.=.=.=.=.=.",
"=.=.=.=.=.=.=.=.=.=.=.=.=.) *.X. .! =.=.=.=.=.=.=.=.=.=.=.=.=.=.",
"=.=.=.=.=.=.=.=.=.=.=.=./ $.+.| ! =.=.=.=.=.=.=.=.=.=.=.=.=.=.=.",
"=.=.=.=.=.=.=.=.=.=.=.=.+.$.} W =.=.=.=.=.=.=.=.=.=.=.=.=.=.=.=.",
"=.=.=.=.=.=.=.=.=.=.=.} &.[ ~ =.=.=.=.=.=.=.=.=.=.=.=.=.=.=.=.=.",
"=.=.=.=.=.=.=.=.=.y w / ' =.=.=.=.=.=.=.=.=.=.=.=.=.=.=.=.=.=.=.",
"=.=.=.=.=.=.=.$ t ` y 0 =.=.=.=.=.=.=.=.=.=.=.=.=.=.=.=.=.=.=.=.",
"=.=.=.=.=.=.=.8 w w t 9 =.=.=.=.=.=.=.=.=.=.=.=.=.=.=.=.=.=.=.=.",
"=.=.=.=.=.=.o $ % & 8 =.=.=.=.=.=.=.=.=.=.=.=.=.=.=.=.=.=.=.=.=.",
"=.=.=.=.=.  . X O + + =.=.=.=.=.=.=.=.=.=.=.=.=.=.=.=.=.=.=.=.=.",
"=.=.=.=.=.=.=.=.=.=.=.=.=.=.=.=.=.=.=.=.=.=.=.=.=.=.=.=.=.=.=.=.",
"=.=.=.=.=.=.=.=.=.=.=.=.=.=.=.=.=.=.=.=.=.=.=.=.=.=.=.=.=.=.=.=.",
"=.=.=.=.=.=.=.=.=.=.=.=.=.=.=.=.=.=.=.=.=.=.=.=.=.=.=.=.=.=.=.=.",
"=.=.=.=.=.=.=.=.=.=.=.=.=.=.=.=.=.=.=.=.=.=.=.=.=.=.=.=.=.=.=.=."
};
