/* XPM */
static char *IDI_ICON_DRAW_POLYLINE_xpm[] = {
/* columns rows colors chars-per-pixel */
"32 32 74 1",
"  c black",
". c #91938E",
"X c #999A96",
"o c #9A9C98",
"O c #9B9D98",
"+ c #9FA09C",
"@ c #A1A39E",
"# c #A1A39F",
"$ c #A3A4A0",
"% c #A3A5A1",
"& c #A5A5A2",
"* c #A6A7A3",
"= c #A6A8A3",
"- c #A7A8A4",
"; c #A7A9A5",
": c #AAAAA7",
"> c #ABACA8",
", c #ABADA9",
"< c #ACADA9",
"1 c #ACAEAA",
"2 c #ADAFAB",
"3 c #AEAFAB",
"4 c #AFB0AC",
"5 c #B0B2AD",
"6 c #B0B2AE",
"7 c #B1B3AE",
"8 c #B2B3AF",
"9 c #B2B3B0",
"0 c #B4B5B1",
"q c #B6B7B3",
"w c #B6B7B4",
"e c #B6B8B3",
"r c #B8B9B5",
"t c #B8BAB6",
"y c #B9BAB7",
"u c #BABAB7",
"i c #BBBCB8",
"p c #BCBDB9",
"a c #BEBFBB",
"s c #C0C2BE",
"d c #C2C2BF",
"f c #C2C3C0",
"g c #CFD0CD",
"h c #D0D0CD",
"j c #D5D6D3",
"k c #DCDCD9",
"l c #E0E0DD",
"z c #E1E1DF",
"x c #E2E2E0",
"c c #E2E3E0",
"v c #E3E3E1",
"b c #E4E4E2",
"n c #E5E5E3",
"m c #E6E6E4",
"M c #E7E7E5",
"N c #E8E8E6",
"B c #E9E9E7",
"V c #EAEAE8",
"C c #EBEBE9",
"Z c #ECECEA",
"A c #EDEDEB",
"S c #EEEEEC",
"D c #EFEFED",
"F c #F0F0EE",
"G c #F1F1EF",
"H c #F2F2F0",
"J c #F3F3F1",
"K c #F3F4F1",
"L c #F4F4F2",
"P c #F5F5F3",
"I c #F6F6F4",
"U c #F7F7F5",
"Y c #F8F8F6",
"T c None",
/* pixels */
"TTTTTTTTTTTTTTTTTTTTTTTTTTTTTTTT",
"TTTTTTTTTTTTTTTTTTTTTTTTTTTTTTTT",
"TTTTTTTTTTTTTTTTTTTTTTTTTTTTTTTT",
"TTTTTTTTTTTTTTTTTTTTTTTTTTTTTTTT",
"TTTTTTTTTTTTs0TTTTTTTTTTTTTTTTTT",
"TTTTTTTTTTTyUYpTTTTTTTTTTTTTTTTT",
"TTTTTTTTTT7IDDIyTTTTTTTTTTTTTTTT",
"TTTTTTTTT,IDDADIyTTTTTTTTTTTTTTT",
"TTTTTTTT=IDDDADAYeTTTTTTTTTTTTTT",
"TTTTTTT$LFADADADDI0TTTTTTTTTTTTT",
"TTTTTT+JFADADADADDI8TTTTTTTTTTTT",
"TTTTTOFDDDADADADDADI7TTTTTTTTTTT",
"TTTTTDFDADDADADAAAAAI7TTTTTTTTTT",
"TTTTAHDADAADADAABAABCI,TTTTTTTTT",
"TTTNHDADADAADAAAABBBBCL,TTTTTTTT",
"TTTLFDDADADDUAABAABBBNNL:TTTTTTT",
"TTT+IDDAADDYdYAABBBBNNNNL;TTTTTT",
"TTTT,IADADI,T0LBNBNNMMMMNL;TTTTT",
"TTTTTsIADI8TTTdLNNNNMMnnnMH&TTTT",
"TTTTTTgLIqTTTTTgHNMNnMnnnnMH$TTT",
"TTTTTTTzuTTTTTTTkFMMnnvnvvvnU.TT",
"TTTTTTTTTTTTTTTTTnAnnvnvvvzAjTTT",
"TTTTTTTTTTTTTTTTTTANnvvzzzBcTTTT",
"TTTTTTTTTTTTTTTTTTXFMvzvzMCTTTTT",
"TTTTTTTTTTTTTTTTTTT+HvzvvDOTTTTT",
"TTTTTTTTTTTTTTTTTTTT&HvvJ+TTTTTT",
"TTTTTTTTTTTTTTTTTTTTT4LH4TTTTTTT",
"TTTTTTTTTTTTTTTTTTTTTT7iTTTTTTTT",
"TTTTTTTTTTTTTTTTTTTTTTTTTTTTTTTT",
"TTTTTTTTTTTTTTTTTTTTTTTTTTTTTTTT",
"TTTTTTTTTTTTTTTTTTTTTTTTTTTTTTTT",
"TTTTTTTTTTTTTTTTTTTTTTTTTTTTTTTT"
};
