/* XPM */
static char *IDI_ICON_DRAW_RECTANGLE_xpm[] = {
/* columns rows colors chars-per-pixel */
"32 32 36 1",
"  c black",
". c #B3B5B1",
"X c #C6C7C4",
"o c #C7C7C4",
"O c #C7C8C4",
"+ c #C7C8C5",
"@ c #C8C8C5",
"# c #C8C9C5",
"$ c #C8C9C6",
"% c #D2D2D0",
"& c #E0E0DE",
"* c #E1E1DF",
"= c #E2E2E0",
"- c #E3E3E1",
"; c #E4E4E2",
": c #E5E5E3",
"> c #E6E6E4",
", c #E7E7E5",
"< c #E7E8E5",
"1 c #E8E8E6",
"2 c #E9E9E7",
"3 c #EAEAE8",
"4 c #EAEBE8",
"5 c #EBEBE9",
"6 c #EBECE9",
"7 c #ECECE9",
"8 c #ECECEA",
"9 c #EDEDEA",
"0 c #EDEDEB",
"q c #EEEEEC",
"w c #EFEFED",
"e c #F0F0EE",
"r c #F1F1EF",
"t c #F5F5F3",
"y c #F7F7F5",
"u c None",
/* pixels */
"uuuuuuuuuuuuuuuuuuuuuuuuuuuuuuuu",
"uuuuuuuuuuuuuuuuuuuuuuuuuuuuuuuu",
"uuuuuuuuuuuuuuuuuuuuuuuuuuuuuuuu",
"uuuuuuuuuuuuuuuuuuuuuuuuuuuuuuuu",
"uuu<tttttttttttttttttttttttyyXuu",
"uuu2qqqqqqqqqqqqqqqqqqqqqqqqr$uu",
"uuu2qqqqqqqqqqqqqqqqqqqqqqq8r$uu",
"uuu2qqqqqqqqqqqqqqqqqqqqqq85r$uu",
"uuu2qqqqqqqqqqqqqqqqqqqqq888r$uu",
"uuu2qqqqqqqqqqqqqqqqqqqq8885q$uu",
"uuu2qqqqqqqqqqqqqqqqqqqq8852q$uu",
"uuu2qqqqqqqqqqqqqqqqqq888855q$uu",
"uuu2qqqqqqqqqqqqqqqqq88855228$uu",
"uuu2qqqqqqqqqqqqqqqqq888552>8$uu",
"uuu2qqqqqqqqqqqqqqq8885522228ouu",
"uuu2qqqqqqqqqqqqqq8q852222>28$uu",
"uuu2qqqqqqqqqqqqq8q85522>>2>5ouu",
"uuu2qqqqqqqqqqqqq88522222>>;5ouu",
"uuu2qqqqqqqqqqqq85552222>>;;4ouu",
"uuu2qqqqqqqqqq88855222>>;;;;5ouu",
"uuu2qqqqqqqqq8885522>>>;;;;=2Xuu",
"uuu2qqqqqqqq888822222>>;;-==<Xuu",
"uuu2qqqqqqq8885222>2>>;;;=;=2ouu",
"uuu2qqqqqqq8852222>>;;;;==2%2ouu",
"uuu2qqqqq88855222>>;>;===*;*2ouu",
"uuu2qqqq88882222>>>>;===**>%2Xuu",
"uuu2qqq888552222>>;;==***;**2ouu",
"uuu2qqq8855222>;>;;;==**%>**2ouu",
"uuu%8q88888884555555552555552.uu",
"uuuuuuuuuuuuuuuuuuuuuuuuuuuuuuuu",
"uuuuuuuuuuuuuuuuuuuuuuuuuuuuuuuu",
"uuuuuuuuuuuuuuuuuuuuuuuuuuuuuuuu"
};
