/* XPM */
static char *IDI_ICON_DRAW_FREEHAND_xpm[] = {
/* columns rows colors chars-per-pixel */
"32 32 164 2",
"   c black",
".  c #44371C",
"X  c #7B3309",
"o  c #5F4514",
"O  c #6F4E10",
"+  c #704F10",
"@  c #725111",
"#  c #775412",
"$  c #775512",
"%  c #7C5813",
"&  c #7D5913",
"*  c #7B5E24",
"=  c #736645",
"-  c #9C1F0C",
";  c #952A0D",
":  c #AC180E",
">  c #BA160F",
",  c #BB2613",
"<  c #835C15",
"1  c #865F15",
"2  c #955F32",
"3  c #886015",
"4  c #8C6416",
"5  c #8A651E",
"6  c #8C631B",
"7  c #916817",
"8  c #936818",
"9  c #986C19",
"0  c #9A6D19",
"q  c #856E3D",
"w  c #8B6031",
"e  c #8F7132",
"r  c #977634",
"t  c #987737",
"y  c #997738",
"u  c #A1721A",
"i  c #A3741B",
"p  c #A8771C",
"a  c #A9781C",
"s  c #AF7C1D",
"d  c #906C52",
"f  c #976E5A",
"g  c #A97B53",
"h  c #B37F5D",
"j  c #A26B60",
"k  c #D81414",
"l  c #C1312F",
"z  c #E31515",
"x  c #F11E1B",
"c  c #F72626",
"v  c #DD4231",
"b  c #E55757",
"n  c #FF4343",
"m  c #FE5151",
"M  c #F66661",
"N  c #FE7777",
"B  c #B4801D",
"V  c #B7811E",
"C  c #B9831E",
"Z  c #BA841E",
"A  c #BD861E",
"S  c #B4823A",
"D  c #9E8448",
"F  c #96825B",
"G  c #A38140",
"H  c #A88646",
"J  c #AD8B49",
"K  c #AC904E",
"L  c #AD9255",
"P  c #B18F4D",
"I  c #B28F4D",
"U  c #B79859",
"Y  c #B89452",
"T  c #BE9A56",
"R  c #B99E5B",
"E  c #A18B6E",
"W  c #BF976C",
"Q  c #BFA564",
"!  c #BBA469",
"~  c #C0881F",
"^  c #C1881F",
"/  c #C3891F",
"(  c #C58B1F",
")  c #C78D20",
"_  c #C88D20",
"`  c #C98E21",
"'  c #CB9022",
"]  c #CC9124",
"[  c #CC9225",
"{  c #CD9225",
"}  c #CD9327",
"|  c #CD942A",
" . c #CE9429",
".. c #CE952C",
"X. c #CE962C",
"o. c #CE943E",
"O. c #CF9830",
"+. c #CC9835",
"@. c #CF9934",
"#. c #D09A36",
"$. c #D19C3A",
"%. c #D19D3C",
"&. c #D29E3F",
"*. c #C49F5B",
"=. c #C7A25E",
"-. c #CBA759",
";. c #C9A45E",
":. c #D2A042",
">. c #D3A247",
",. c #D4A349",
"<. c #D5A64D",
"1. c #D7A955",
"2. c #D7AA55",
"3. c #D7AB56",
"4. c #D8AC5B",
"5. c #D9AD5B",
"6. c #C4A164",
"7. c #CAA661",
"8. c #CEA965",
"9. c #CDB576",
"0. c #D2AD69",
"q. c #D4AF6B",
"w. c #DAAF61",
"e. c #D5B06D",
"r. c #D6B26E",
"t. c #D7B26E",
"y. c #DBB163",
"u. c #DCB265",
"i. c #DCB367",
"p. c #DBB36A",
"a. c #DBB56D",
"s. c #DDB56B",
"d. c #DCB66F",
"f. c #DEB66E",
"g. c #D9B86C",
"h. c #D9B774",
"j. c #DCB671",
"k. c #DCB771",
"l. c #AA9B9A",
"z. c #BF8989",
"x. c #B59D86",
"c. c #B1A5A6",
"v. c #BAA7A6",
"b. c #BAB4B4",
"n. c #BEBCBD",
"m. c #DF9B83",
"M. c #D69798",
"N. c #CDA98D",
"B. c #DAB884",
"V. c #C4BCB9",
"C. c #CFB5B3",
"Z. c #FE8686",
"A. c #F5948D",
"S. c #F4A094",
"D. c #D6C386",
"F. c #D4C289",
"G. c #D8C182",
"H. c #DDCC94",
"J. c #DACE9B",
"K. c #E1CE93",
"L. c #E2D19A",
"P. c #E3D7A3",
"I. c #E5DCAD",
"U. c None",
/* pixels */
"U.U.U.U.U.U.U.U.U.U.U.U.U.U.U.U.U.U.U.U.U.w 2 U.U.U.U.U.U.U.U.U.",
"U.U.U.U.U.U.U.U.U.U.U.U.U.U.U.U.U.U.U.U.h A.M v U.U.U.U.U.U.U.U.",
"U.U.U.U.U.U.U.U.U.U.U.U.U.U.U.U.U.U.U.g S.N n x , U.U.U.U.U.U.U.",
"U.U.U.U.U.U.U.U.U.U.U.U.U.U.U.U.U.U.U.m.Z.m c k : U.U.U.U.U.U.U.",
"U.U.U.U.U.U.U.U.U.U.U.U.U.U.U.U.U.U.x.C.M.b z > ; U.U.U.U.U.U.U.",
"U.U.U.U.U.U.U.U.U.U.U.U.U.U.U.U.U.E V.n.b.z.l - U.U.U.U.U.U.U.U.",
"U.U.U.U.U.U.U.U.U.U.U.U.U.U.U.U.U.6.B.N.v.c.j X U.U.U.U.U.U.U.U.",
"U.U.U.U.U.U.U.U.U.U.U.U.U.U.U.U.P j.5.o.W l.f U.U.U.U.U.U.U.U.U.",
"U.U.U.U.U.U.U.U.U.U.U.U.U.U.U.G q.i.%._ S d U.U.U.U.U.U.U.U.U.U.",
"U.U.U.U.U.U.U.U.U.U.U.U.U.U.U.=.d.,.{ C 6 U.U.U.U.U.U.U.U.U.U.U.",
"U.U.U.U.U.U.U.U.U.U.U.U.U.U.Y j.1. .~ 9 + U.U.U.U.U.U.U.U.U.U.U.",
"U.U.U.U.U.U.U.U.U.U.U.U.U.H r.w.#._ p % U.U.U.U.U.U.U.U.U.U.U.U.",
"U.U.U.U.U.U.U.U.U.U.U.U.r 7.s.:.{ B 1 U.U.U.U.U.U.U.U.U.U.U.U.U.",
"U.U.U.U.U.U.U.U.U.U.U.U.T d.<. .A 7 U.U.U.U.U.U.U.U.U.U.U.U.U.U.",
"U.U.U.U.U.U.U.U.U.U.U.J r.5.O.( u $ U.U.U.U.U.U.U.U.U.U.U.U.U.U.",
"U.U.U.U.U.U.U.U.U.U.t 8.i.$.' s < U.U.U.U.U.U.U.U.U.U.U.U.U.U.U.",
"U.U.U.U.U.U.U.U.U.U.*.a.,.{ Z 4 U.U.U.U.U.U.U.U.U.U.U.U.U.U.U.U.",
"U.U.U.U.U.U.U.U.U.P r.1...( 9 @ U.U.U.U.U.U.U.U.U.U.U.U.U.U.U.U.",
"U.U.U.U.U.U.U.U.y 0.u.@._ a % U.U.U.U.U.U.U.U.U.U.U.U.U.U.U.U.U.",
"U.U.U.U.U.U.U.U.;.p.%.{ C 3 U.U.U.U.U.U.U.U.U.U.U.U.U.U.U.U.U.U.",
"U.U.U.U.U.U.U.U h.1. .) 8 O U.U.U.U.U.U.U.U.U.U.U.U.U.U.U.U.U.U.",
"U.U.U.U.U.U.* F.K.g.+.u $ U.U.U.U.U.U.U.U.U.U.U.U.U.U.U.U.U.U.U.",
"U.U.U.U.U.U.D J.I.P.-.5 U.U.U.U.U.U.U.U.U.U.U.U.U.U.U.U.U.U.U.U.",
"U.U.U.U.U.U.Q H.L.F.R U.U.U.U.U.U.U.U.U.U.U.U.U.U.U.U.U.U.U.U.U.",
"U.U.U.U.U.U.! G.9.K U.U.U.U.U.U.U.U.U.U.U.U.U.U.U.U.U.U.U.U.U.U.",
"U.U.U.U.U.q = L e U.U.U.U.U.U.U.U.U.U.U.U.U.U.U.U.U.U.U.U.U.U.U.",
"U.U.U.U.U.F . U.U.U.U.U.U.U.U.U.U.U.U.U.U.U.U.U.U.U.U.U.U.U.U.U.",
"U.U.U.U.U.o U.U.U.U.U.U.U.U.U.U.U.U.U.U.U.U.U.U.U.U.U.U.U.U.U.U.",
"U.U.U.U.U.U.U.U.U.U.U.U.U.U.U.U.U.U.U.U.U.U.U.U.U.U.U.U.U.U.U.U.",
"U.U.U.U.U.U.U.U.U.U.U.U.U.U.U.U.U.U.U.U.U.U.U.U.U.U.U.U.U.U.U.U.",
"U.U.U.U.U.U.U.U.U.U.U.U.U.U.U.U.U.U.U.U.U.U.U.U.U.U.U.U.U.U.U.U.",
"U.U.U.U.U.U.U.U.U.U.U.U.U.U.U.U.U.U.U.U.U.U.U.U.U.U.U.U.U.U.U.U."
};
