/* XPM */
static char *IDI_ICON_DRAW_TEXT_xpm[] = {
/* columns rows colors chars-per-pixel */
"32 32 106 2",
"   c black",
".  c #040404",
"X  c gray2",
"o  c #060606",
"O  c #070707",
"+  c gray3",
"@  c #090909",
"#  c #0B0B0B",
"$  c #0C0C0C",
"%  c gray5",
"&  c #0E0E0E",
"*  c gray6",
"=  c #101010",
"-  c gray7",
";  c #131313",
":  c #151515",
">  c #161616",
",  c gray9",
"<  c #181818",
"1  c #191919",
"2  c #1B1B1B",
"3  c gray11",
"4  c #1D1D1D",
"5  c #1E1E1E",
"6  c gray12",
"7  c #202020",
"8  c gray13",
"9  c #232323",
"0  c gray14",
"q  c #252525",
"w  c gray15",
"e  c #272727",
"r  c #282828",
"t  c gray16",
"y  c #2A2A2A",
"u  c gray17",
"i  c #2C2C2C",
"p  c #2D2D2D",
"a  c gray18",
"s  c #2F2F2F",
"d  c gray19",
"f  c #313131",
"g  c #323232",
"h  c gray20",
"j  c #343434",
"k  c #353535",
"l  c gray21",
"z  c #373737",
"x  c gray22",
"c  c #393939",
"v  c #3A3A3A",
"b  c gray23",
"n  c #3C3C3C",
"m  c gray24",
"M  c #3E3E3E",
"N  c #3F3F3F",
"B  c gray25",
"V  c #414141",
"C  c gray26",
"Z  c #434343",
"A  c #444444",
"S  c gray27",
"D  c #464646",
"F  c gray28",
"G  c #484848",
"H  c #494949",
"J  c gray29",
"K  c #4B4B4B",
"L  c #4C4C4C",
"P  c gray30",
"I  c #4E4E4E",
"U  c gray31",
"Y  c #505050",
"T  c #515151",
"R  c gray32",
"E  c #535353",
"W  c gray33",
"Q  c #555555",
"!  c #565656",
"~  c gray34",
"^  c #585858",
"/  c gray35",
"(  c #5A5A5A",
")  c #5B5B5B",
"_  c gray36",
"`  c gray37",
"'  c gray38",
"]  c gray39",
"[  c #646464",
"{  c gray40",
"}  c #676767",
"|  c DimGray",
" . c gray42",
".. c gray43",
"X. c #6F6F6F",
"o. c gray44",
"O. c #717171",
"+. c #727272",
"@. c #747474",
"#. c #777777",
"$. c gray47",
"%. c #7E7E7E",
"&. c #808080",
"*. c #818181",
"=. c gray52",
"-. c None",
/* pixels */
"-.-.-.-.-.-.-.-.-.-.-.-.-.-.-.-.-.-.-.-.-.-.-.-.-.-.-.-.-.-.-.-.",
"-.-.-.-.-.-.-.-.-.-.-.-.-.-.-.-.-.-.-.-.-.-.-.-.-.-.-.-.-.-.-.-.",
"-.-.-.-.-.-.-.-.-.-.-.-.p c z z z z z f -.-.-.-.-.-.-.-.-.-.-.-.",
"-.-.-.-.-.-.-.-.-.-.-.7 =.O.O.O.O.O...*.7 -.-.-.-.-.-.-.-.-.-.-.",
"-.-.-.-.-.-.-.-.-.-.-.` [ ` ` ^ ^ ^ ! ^ R -.-.-.-.-.-.-.-.-.-.-.",
"-.-.-.-.-.-.-.-.-.-.-.*.` ` ^ ^ ! ! ! R [ -.-.-.-.-.-.-.-.-.-.-.",
"-.-.-.-.-.-.-.-.-.-.z O.^ ^ ! ! ! ! R R ^ 3 -.-.-.-.-.-.-.-.-.-.",
"-.-.-.-.-.-.-.-.-.-...` ^ ! R ! R P P P P z -.-.-.-.-.-.-.-.-.-.",
"-.-.-.-.-.-.-.-.-., %.! ! R R p e P K K K F @ -.-.-.-.-.-.-.-.-.",
"-.-.-.-.-.-.-.-.-.K [ ! R R P $ $ K K F F F 3 -.-.-.-.-.-.-.-.-.",
"-.-.-.-.-.-.-.-.-.#.R R P P C -.-.N F F F C c -.-.-.-.-.-.-.-.-.",
"-.-.-.-.-.-.-.-.w O.R P P P 3 -.-.2 F C C N N $ -.-.-.-.-.-.-.-.",
"-.-.-.-.-.-.-.-.` ! K K K F $ -.-.@ C C N N N 7 -.-.-.-.-.-.-.-.",
"-.-.-.-.-.-.-.= #.P K K K f -.-.-.-.p N N c c z @ -.-.-.-.-.-.-.",
"-.-.-.-.-.-.-.c ] K F F C = -.-.-.-.= N c c z z = -.-.-.-.-.-.-.",
"-.-.-.-.-.-.-.| K F F C N -.-.-.-.-.@ z c z f z w -.-.-.-.-.-.-.",
"-.-.-.-.-.-.2 ..C F C N w -.-.-.-.-.-.7 z f f f p @ -.-.-.-.-.-.",
"-.-.-.-.-.-.P R C C N N @ -.-.-.-.-.-.$ f f f p p , -.-.-.-.-.-.",
"-.-.-.-.-.-...C C N N N F F C C F C C F z p p p e w -.-.-.-.-.-.",
"-.-.-.-.-.e ` N N c c N ^ ! ! ! ! R ! R z p e e e w @ -.-.-.-.-.",
"-.-.-.-.-.` F N c c c z z f f f p p p p e e w w w w , -.-.-.-.-.",
"-.-.-.-.= | c c c c z f z f f f p p p e e e w w 7 7 3 o -.-.-.-.",
"-.-.-.-.N P c z z c f f f p p p e p e e e w 7 7 7 3 3 $ -.-.-.-.",
"-.-.-.-.[ z z z f f 3 = = = $ $ $ $ $ $ $ , 3 7 7 7 3 2 -.-.-.-.",
"-.-.-.2 ^ z f f f p @ -.-.-.-.-.-.-.-.-.-.o 3 7 7 3 7 7 o -.-.-.",
"-.-.-.K N f f p p 3 -.-.-.-.-.-.-.-.-.-.-.-.= 7 7 7 3 7 = -.-.-.",
"-.-.-.^ f f p p e @ -.-.-.-.-.-.-.-.-.-.-.-.o 3 7 7 7 7 3 -.-.-.",
"-.-.3 ^ F c p e w -.-.-.-.-.-.-.-.-.-.-.-.-.-.2 3 7 3 7 3 @ -.-.",
"-.-.-.-.o o o o o -.-.-.-.-.-.-.-.-.-.-.-.-.-.o o o   o o o -.-.",
"-.-.-.-.-.-.-.-.-.-.-.-.-.-.-.-.-.-.-.-.-.-.-.-.-.-.-.-.-.-.-.-.",
"-.-.-.-.-.-.-.-.-.-.-.-.-.-.-.-.-.-.-.-.-.-.-.-.-.-.-.-.-.-.-.-.",
"-.-.-.-.-.-.-.-.-.-.-.-.-.-.-.-.-.-.-.-.-.-.-.-.-.-.-.-.-.-.-.-."
};
