/* XPM */
static char *IDI_ICON_DRAW_ELLIPSE_xpm[] = {
/* columns rows colors chars-per-pixel */
"32 32 75 1",
"  c black",
". c #8E8F8B",
"X c #929490",
"o c #959692",
"O c #9C9E99",
"+ c #9C9E9A",
"@ c #9FA19C",
"# c #A0A19D",
"$ c #A0A29D",
"% c #A0A29E",
"& c #A1A39E",
"* c #A4A6A1",
"= c #A6A7A4",
"- c #A9AAA6",
"; c #AAABA7",
": c #ABACA8",
"> c #ADAEAB",
", c #AEAFAB",
"< c #AFB1AD",
"1 c #B1B3AF",
"2 c #B2B3B0",
"3 c #B4B4B1",
"4 c #B4B5B1",
"5 c #B4B5B2",
"6 c #B5B6B2",
"7 c #B7B8B5",
"8 c #B8B9B5",
"9 c #B8BAB6",
"0 c #B9BAB6",
"q c #BBBCB8",
"w c #BBBDB9",
"e c #BCBDBA",
"r c #BEBFBB",
"t c #C4C6C2",
"y c #C9C9C6",
"u c #CACAC7",
"i c #D0D0CD",
"p c #D2D3D0",
"a c #D3D4D1",
"s c #D7D8D5",
"d c #DEDEDC",
"f c #DFDFDC",
"g c #DFDFDD",
"h c #E0E0DE",
"j c #E1E1DE",
"k c #E1E1DF",
"l c #E2E2E0",
"z c #E2E3E0",
"x c #E3E3E1",
"c c #E4E4E2",
"v c #E5E5E3",
"b c #E6E6E4",
"n c #E6E7E4",
"m c #E7E7E5",
"M c #E8E8E6",
"N c #E9E9E7",
"B c #EAEAE7",
"V c #EAEAE8",
"C c #EBEBE9",
"Z c #ECECEA",
"A c #EDEDEB",
"S c #EEEEEC",
"D c #EFEFED",
"F c #EFF0ED",
"G c #F0F0EE",
"H c #F0F1EE",
"J c #F1F1EF",
"K c #F2F2F0",
"L c #F3F3F1",
"P c #F4F4F2",
"I c #F5F5F3",
"U c #F6F6F4",
"Y c #F7F7F5",
"T c #F7F8F5",
"R c None",
/* pixels */
"RRRRRRRRRRRRRRRRRRRRRRRRRRRRRRRR",
"RRRRRRRRRRRRRRRRRRRRRRRRRRRRRRRR",
"RRRRRRRRRRRRRRRRRRRRRRRRRRRRRRRR",
"RRRRRRRRRRRRRRRRRRRRRRRRRRRRRRRR",
"RRRRRRRRRRRRRRRR%RRRRRRRRRRRRRRR",
"RRRRRRRRRRR9dLPUYPGAp>RRRRRRRRRR",
"RRRRRRRRRyTPGSSAACBBAGA5RRRRRRRR",
"RRRRRRR>PPSSSSSAACCBBBbGvORRRRRR",
"RRRRRReYSSSSSSSACCCCBbbvbL%RRRRR",
"RRRRR9YSSSSSSSACCCbBbbbvvbPORRRR",
"RRRR%USSSSSSSSACCCBbBbbvvvbbRRRR",
"RRRRmGSSSSSSSAACCbCbbbvvkkhS9RRR",
"RRR@USSSSSSSSACCCCbbbbbvvkhkBRRR",
"RRRyLSSSSSSSAACCCbbbbvvkkkhhLORR",
"RRRdGSSSSSSSACCBCbCbbvvvkhhhS<RR",
"RRRBSSSSSSSSAACCCCbbbvkkkhhhCwRR",
"RRRkGSSSSSSSCCCmbbbbbkkkkkkdS2RR",
"RRRpLSSSSSSSCCCCbCbbbbbkkkkdL*RR",
"RRR:USSSSSZCCCCbbbbbbkkkddkdFRRR",
"RRRRGSSSSSSCCCmCCbbbkbkkkkkCiRRR",
"RRRR5USSSSCCCbbbbbbkbkkdhhkGRRRR",
"RRRRRdPSSZCCCCCbbbbbkkkkhhP2RRRR",
"RRRRRRbLSZZCCbBbbbkkckkdhLrRRRRR",
"RRRRRRRpUSCCBBbbbbbkkkkbL2RRRRRR",
"RRRRRRRR%APABBBbbbbkkbLdXRRRRRRR",
"RRRRRRRRRR-hPGGACSSLGsoRRRRRRRRR",
"RRRRRRRRRRRRR=1wt7-.RRRRRRRRRRRR",
"RRRRRRRRRRRRRRRRRRRRRRRRRRRRRRRR",
"RRRRRRRRRRRRRRRRRRRRRRRRRRRRRRRR",
"RRRRRRRRRRRRRRRRRRRRRRRRRRRRRRRR",
"RRRRRRRRRRRRRRRRRRRRRRRRRRRRRRRR",
"RRRRRRRRRRRRRRRRRRRRRRRRRRRRRRRR"
};
