/* XPM */
static char *IDI_ICON_DRAW_POLYGON_xpm[] = {
/* columns rows colors chars-per-pixel */
"32 32 111 2",
"   c black",
".  c #81837F",
"X  c #82837F",
"o  c #82847F",
"O  c #838480",
"+  c #838581",
"@  c #848581",
"#  c #848682",
"$  c #858682",
"%  c #858783",
"&  c #868783",
"*  c #868884",
"=  c #878884",
"-  c #878984",
";  c #888985",
":  c #898B86",
">  c #8B8D89",
",  c #90928D",
"<  c #92948F",
"1  c #939490",
"2  c #939590",
"3  c #959692",
"4  c #959792",
"5  c #959793",
"6  c #989995",
"7  c #999B96",
"8  c #9A9B97",
"9  c #9B9D98",
"0  c #9D9F9A",
"q  c #9D9F9B",
"w  c #9EA09C",
"e  c #9FA09D",
"r  c #9FA19D",
"t  c #A0A19E",
"y  c #A2A49F",
"u  c #ACADA8",
"i  c #ADADA9",
"p  c #AFB0AB",
"a  c #B8B9B5",
"s  c #B8BAB6",
"d  c #B9BAB6",
"f  c #BABBB7",
"g  c #BBBCB8",
"h  c #BCBDB9",
"j  c #BDBEBB",
"k  c #BFC0BD",
"l  c #C5C6C3",
"z  c #C8C9C6",
"x  c #CCCCCA",
"c  c #CCCDCA",
"v  c #CFCFCD",
"b  c #D1D2CF",
"n  c #D6D7D4",
"m  c #DBDCD9",
"M  c #DCDCDA",
"N  c #DDDDDA",
"B  c #DDDDDB",
"V  c #DFDFDB",
"C  c #E0E0DE",
"Z  c #E1E1DF",
"A  c #E2E2E0",
"S  c #E3E3E1",
"D  c #E4E4E1",
"F  c #E4E4E2",
"G  c #E5E5E3",
"H  c #E6E6E4",
"J  c #E7E7E5",
"K  c #E8E8E6",
"L  c #E9E9E7",
"P  c #EAEAE8",
"I  c #EBEBE9",
"U  c #ECECEA",
"Y  c #ECECEB",
"T  c #EDEDEA",
"R  c #EDEDEB",
"E  c #EEEEEB",
"W  c #EEEEEC",
"Q  c #EFEFEC",
"!  c #EFEFED",
"~  c #F0F0EE",
"^  c #F0F0EF",
"/  c #F1F1EE",
"(  c #F1F1EF",
")  c #F2F2EF",
"_  c #F3F3EF",
"`  c #F1F1F0",
"'  c #F2F2F0",
"]  c #F2F2F1",
"[  c #F2F3F0",
"{  c #F3F3F0",
"}  c #F3F3F1",
"|  c #F3F3F2",
" . c #F4F4F1",
".. c #F4F4F2",
"X. c #F4F4F3",
"o. c #F5F5F3",
"O. c #F6F6F3",
"+. c #F5F5F4",
"@. c #F6F6F4",
"#. c #F6F6F5",
"$. c #F7F7F4",
"%. c #F7F7F5",
"&. c #F7F7F6",
"*. c #F8F8F5",
"=. c #F8F8F6",
"-. c #F8F8F7",
";. c #F9F9F6",
":. c #F9F9F7",
">. c #FAFAF7",
",. c #F9F9F8",
"<. c None",
/* pixels */
"<.<.<.<.<.<.<.<.<.<.<.<.<.<.<., <.<.<.<.<.<.<.<.<.<.<.<.<.<.<.<.",
"<.<.<.<.<.<.<.<.<.<.<.<.<.<.t o.N 2 <.<.<.<.<.<.<.<.<.<.<.<.<.<.",
"<.<.<.<.<.<.<.<.<.<.<.<.<.g -.' @.' 0 <.<.<.<.<.<.<.<.<.<.<.<.<.",
"<.<.<.<.<.<.<.<.<.<.<.< m -._ U W ' -.a <.<.<.<.<.<.<.<.<.<.<.<.",
"<.<.<.<.<.<.<.<.<.<.8 _ -.W W W W W _ -.N 2 <.<.<.<.<.<.<.<.<.<.",
"<.<.<.<.<.<.<.<.<.i -.| W W W W W W W W o.{ q <.<.<.<.<.<.<.<.<.",
"<.<.<.<.<.<.<.<.c &._ W W W W W W W W W W ' &.a <.<.<.<.<.<.<.<.",
"<.<.<.<.<.<.4 L &.W U W W W W W W W W W U U W -.N 4 <.<.<.<.<.<.",
"<.<.<.<.<.y o.o.U W W W W W W W W W W U U I I I ' ' q <.<.<.<.<.",
"<.<.<.<.f -._ W W W W W W W W W W W W U U I L L L W -.a <.<.<.<.",
"<.<.2 N -._ W W W W W W W W W W W U I U I I I L L L L @.N <.<.<.",
"<.9 ' o.W W W W W W W W W W W U W U I I L I L L L H G H _ ' t <.",
"<.k -.W W W W W W W W W W W U W U I I I L L J J H H G G S _ l <.",
"<.6 &.U W W W W W W W W W W U U I I I L L L J J H G G G S @.6 <.",
"<.<._ _ W W W W W W W W U U U I I I L L L H H H G G G S G ' <.<.",
"<.<.v o.W W W W W W W U W U U U L L L J J J H G G G S S U b <.<.",
"<.<.t -.! ! ! U ! U Y Y Y I I I L J L H H H H H S S S S ' u <.<.",
"<.<.<.&.! U ! ! U Y Y Y I K I K J L J H H H S F S S S S | <.<.<.",
"<.<.<.N { W ! E E U I I I I I J L J H H H S F S S S C J N <.<.<.",
"<.<.<.i &.W U U U U I I I J K K H H H G F F S V S C C ' p <.<.<.",
"<.<.<.4 &.U W Y U Y L L I J J J H H G S G S S S V S Z @.2 <.<.<.",
"<.<.<.<.J _ Y Y Y L L L K J J H H G G S S S S S C V H L <.<.<.<.",
"<.<.<.<.f o.Y Y L L L L J J H H G S S S Z Z Z V C C ! g <.<.<.<.",
"<.<.<.<.4 >.L L L L L J J H F F G S S S Z Z V Z C C @.4 <.<.<.<.",
"<.<.<.<.<.! U L I J H J H H F F S S S C S C C C C F W <.<.<.<.<.",
"<.<.<.<.<.z ' L K J J H H F S S S S C S V C C C V Y c <.<.<.<.<.",
"<.<.<.<.<.6 -.L J H H H F F S S S C C C C C S V S @.8 <.<.<.<.<.",
"<.<.<.<.<.<.o.L H H F F F S S S C C C C C C V Z S ' > <.<.<.<.<.",
"<.<.<.<.<.<.b -.-.-.@.@.@.@.@.&.@.@.@.@.@.@.@.@.@.n <.<.<.<.<.<.",
"<.<.<.<.<.<.& : - * % % @ @ . @ . . . . + % % * - % <.<.<.<.<.<.",
"<.<.<.<.<.<.<.<.<.<.<.<.<.<.<.<.<.<.<.<.<.<.<.<.<.<.<.<.<.<.<.<.",
"<.<.<.<.<.<.<.<.<.<.<.<.<.<.<.<.<.<.<.<.<.<.<.<.<.<.<.<.<.<.<.<."
};
