/* XPM */
static char *IDI_ICON_DRAW_AIRBRUSH_xpm[] = {
/* columns rows colors chars-per-pixel */
"32 32 50 1",
"  c black",
". c #2C3234",
"X c #303536",
"o c #323839",
"O c #363C3C",
"+ c #3A3E3F",
"@ c #3F4444",
"# c #424746",
"$ c #454949",
"% c #4D4E4C",
"& c #4E504C",
"* c #4F5352",
"= c #51534F",
"- c #545652",
"; c #545857",
": c #565A59",
"> c #5A5C58",
", c #5D5E5C",
"< c #5D605E",
"1 c #60625D",
"2 c #646662",
"3 c #666865",
"4 c #6B6C67",
"5 c #757574",
"6 c #7B7C79",
"7 c gray49",
"8 c #1F4986",
"9 c #204A87",
"0 c #295694",
"q c #848583",
"w c #86898A",
"e c #8B8D8A",
"r c #8D8E8C",
"t c #939392",
"y c #9D9D9C",
"u c #A6A6A5",
"i c #ABACAB",
"p c #B4B4B3",
"a c gray",
"s c #C1BFB6",
"d c #C0C0BF",
"f c #C7C8C7",
"g c #CBCAC6",
"h c gray83",
"j c #DCDBDC",
"k c #E8E6DF",
"l c #E4E4E4",
"z c gray91",
"x c #F3F3F3",
"c c None",
/* pixels */
"cccccccccccccccccccccccccccccccc",
"cccccccccccccccccccccccccccccccc",
"cccccccccccccccccccccccccc++.ccc",
"cccccccccccccccccccccccccO,;..cc",
"cccccccccccccccccccccccc@:-$@occ",
"ccccccccccccccccccccccc+*<@O@Xcc",
"ccccccccccccccccccccccO,,O@@.ccc",
"ccccccccccccccccccccc+,*#@+Xcccc",
"cccccccccccccccccccc@*,#O@Xccccc",
"ccccccccccccc&>,cccO:<O@@.cccccc",
"cccccccccccc%-%cccO,-@@+Xccccccc",
"cccccccccccc2=  c+*:$O@Xcccccccc",
"cccccccccccc5cc-%,<++@.ccccccccc",
"ccccccccccccccc3aw+@+Xcccccccccc",
"cccccccccccccc6pzi,@.ccccccccccc",
"ccccccccccccc4pxhar@cccccccccccc",
"cccccccccccc2flhpyqccccccccccccc",
"ccccccccccc5pljapuqccccccccccccc",
"cccccccccc4ixhpyppt,cccccccccccc",
"ccccccccc1skhpq3riitcccccccccccc",
"ccccccccc7gjpqcc3rut5ccccccccccc",
"cccccccccpdir,ccccq775cccccccccc",
"ccccccccrlp7,ccccccc7rcccccccccc",
"cccccccc6rccccccccccc5etcccccccc",
"cccccccccccccccccccccccccccccccc",
"cccccc9ccccccccccccccccccccccccc",
"ccccc8cccccccccccccccccccccccccc",
"cccc0ccccccccccccccccccccccccccc",
"cccccccccccccccccccccccccccccccc",
"cccccccccccccccccccccccccccccccc",
"cccccccccccccccccccccccccccccccc",
"cccccccccccccccccccccccccccccccc"
};
