/* XPM */
static const char *IDI_ICON_DRAW_RECTANGLE_ROUNDED_xpm[] = {
/* columns rows colors chars-per-pixel */
"16 16 19 1",
"  c black",
". c #888A85",
"X c #E0E0DE",
"o c #E1E1DF",
"O c #E2E2E0",
"+ c #E3E3E1",
"@ c #E4E4E2",
"# c #E5E5E3",
"$ c #E6E6E4",
"% c #E7E7E5",
"& c #E8E8E6",
"* c #E9E9E7",
"= c #EAEAE8",
"- c #EBEBE9",
"; c #ECECEA",
": c #EDEDEB",
"> c #EEEEEC",
", c #FDFDFB",
"< c None",
/* pixels */
"<<<..........<<<",
"<<.,,,,,,,,,,.<<",
"<.,>>>>>>>>>>,.<",
".,>>>>>>>>>>>:,.",
".,>>>>>>>>>::-,.",
".,>>>>>>>>>:--,.",
".,>>>>>>>>---&,.",
".,>>>>>>::--&$,.",
".,>>>>>::-&&&$,.",
".,>>>>:--&&&@@,.",
".,>>>::-&&$@@+,.",
".,>:::-&&$$@+o,.",
".,>:--&&$@@+oX,.",
"<.,---$$@++oo,.<",
"<<.,,,,,,,,,,.<<",
"<<<..........<<<"
};
