/* XPM */
static char *IDI_ICON_DRAW_ERASER_xpm[] = {
/* columns rows colors chars-per-pixel */
"32 32 84 1",
"  c black",
". c #D41F1F",
"X c #CC2727",
"o c #D62828",
"O c #E62B2B",
"+ c #EC2C2C",
"@ c #E13C3B",
"# c #ED3332",
"$ c #ED3F3E",
"% c #F02627",
"& c #F03F3E",
"* c #E3403E",
"= c #EC4543",
"- c #EA4C4A",
"; c #ED514F",
": c #E55855",
"> c #EC5452",
", c #EC5E5B",
"< c #F75353",
"1 c #F15C5A",
"2 c #F85252",
"3 c #E56360",
"4 c #EF6564",
"5 c #ED6F6C",
"6 c #EA706B",
"7 c #E67B75",
"8 c #EA7673",
"9 c #E97C76",
"0 c #EB7F7C",
"q c #F46260",
"w c #F16C6A",
"e c #F0706D",
"r c #F27573",
"t c #FC7676",
"y c #FF7E7E",
"u c #FF7F80",
"i c #F4807E",
"p c #DEA49E",
"a c #DEADA3",
"s c #DFB0A7",
"d c #E78A83",
"f c #EC8380",
"g c #ED8683",
"h c #E98B85",
"j c #EB8D89",
"k c #EA948E",
"l c #ED9491",
"z c #EA9995",
"x c #F78483",
"c c #F38885",
"v c #F38C8A",
"b c #F2908E",
"n c #F9908F",
"m c #F09390",
"M c #F99C9B",
"N c #E5A59D",
"B c #E8A29C",
"V c #F3A19E",
"C c #E2AFA6",
"Z c #E6A8A2",
"A c #E5ACA4",
"S c #EBA5A1",
"D c #E9AAA4",
"F c #EDAEA8",
"G c #E3B4AB",
"H c #E4B8AF",
"J c #E5B6B0",
"K c #E3BBB4",
"L c #E6BEB8",
"P c #ECB4B0",
"I c #EBBBB6",
"U c #EBBCB8",
"Y c #F1ADA9",
"T c #F9A9A7",
"R c #F9A9A8",
"E c #F4B4B1",
"W c #E5C2BB",
"Q c #EBC3BE",
"! c #E8C9C3",
"~ c #EDCEC9",
"^ c #EDD2CC",
"/ c #ECD5D0",
"( c #F1C7C3",
") c None",
/* pixels */
"))))))))))))))))))))))))))))))))",
"))))))))))))))))))))))))))))))))",
"))))))))))))))))))))))))))))))))",
"))))))))))))))))))))))))))))))))",
"))))))))))))))))))))))))))))))))",
")))))))))))>>>>>>>>>>>>;;-#)))))",
"))))))))))BLJGGGGGGGGGGGGp;%))))",
")))))))))BGKGHHGGGGGGGGGKLh<))))",
"))))))))zWGaaaaAAAAAAAANGQVq))))",
")))))))jLGsaaaAAAAAAAAAAGQv<))))",
")))))))SWCaaaAAAAAAAAAAAGDx2))))",
"))))))jPKaaAAAAAAAAAAAAHPlc1))))",
")))))pGKGAAAAAAAAAAAZZALFih4))))",
")))))lQKAAAAAAAAAAZZZAGKAg9:))))",
"))))gIKGAAAAAAAAAZZZNAIDzh,@))))",
"))))l!AAAAAAAAAZZZAAAGQzhd=)))))",
")))lIQAAAAAAZZAZNNNNGKKzg7*)))))",
")))PQGANNNNNNNNNNNNBIQDz9-))))))",
"))-IQGGGGGPPPPPPFFFFQUkk6O))))))",
"))-U/^^^^^^^^~~~~~~~(Ygf3o))))))",
"))=DETRTTTTTTTTTTTTTMv0,@)))))))",
"))=mnyuuuuuuuuuuuuuuyr8=.)))))))",
"))$xxtttttttttttttttte,@))))))))",
"))&xbcccccccccccccccvr$X))))))))",
"))#45wwwwwwwwwwwwwwwe,O)))))))))",
"))+++++++++++++++++++O))))))))))",
"))))))))))))))))))))))))))))))))",
"))))))))))))))))))))))))))))))))",
"))))))))))))))))))))))))))))))))",
"))))))))))))))))))))))))))))))))",
"))))))))))))))))))))))))))))))))",
"))))))))))))))))))))))))))))))))"
};
