/* XPM */
static const char *IDI_ICON_REDO_xpm[] = {
/* columns rows colors chars-per-pixel */
"32 32 164 2 ",
"   c #4E9A06",
".  c #4F9A07",
"X  c #4F9C06",
"o  c #4F9C07",
"O  c #4F9C08",
"+  c #509D06",
"@  c #509D07",
"#  c #509B08",
"$  c #509B09",
"%  c #519B0A",
"&  c #509C08",
"*  c #519C0A",
"=  c #519D0A",
"-  c #539F0B",
";  c #55A00E",
":  c #59A311",
">  c #5AA013",
",  c #5BA414",
"<  c #5CA417",
"1  c #5EA917",
"2  c #5CA21A",
"3  c #5FA61D",
"4  c #5FA51E",
"5  c #69A710",
"6  c #6BA71C",
"7  c #66B11F",
"8  c #69AF25",
"9  c #6BAD2D",
"0  c #6CAF2D",
"q  c #6BB623",
"w  c #6CB725",
"e  c #74BD2C",
"r  c #71B531",
"t  c #73D216",
"y  c #74D217",
"u  c #75D219",
"i  c #79D420",
"p  c #7AD422",
"a  c #7CD526",
"s  c #7DD528",
"d  c #7CC336",
"f  c #7DBD40",
"g  c #7FBE44",
"h  c #81C532",
"j  c #86CA36",
"k  c #83C43B",
"l  c #80C83A",
"z  c #84CC3F",
"x  c #85D835",
"c  c #87D838",
"v  c #88D93A",
"b  c #8AD93C",
"n  c #80BD43",
"m  c #88CF42",
"M  c #87C54B",
"N  c #87C14E",
"B  c #88C74B",
"V  c #8BD246",
"C  c #8FD445",
"Z  c #8CDA40",
"A  c #8DDA42",
"S  c #8FDB45",
"D  c #8ED549",
"F  c #90DB46",
"G  c #90D74C",
"H  c #91DB48",
"J  c #91DB49",
"K  c #92D84B",
"L  c #93DB4D",
"P  c #94DB4F",
"I  c #93DC4C",
"U  c #90CE55",
"Y  c #92CE56",
"T  c #93CD5B",
"R  c #95DC50",
"E  c #97DD53",
"W  c #97DC55",
"Q  c #99DE55",
"!  c #95D45A",
"~  c #9AD55F",
"^  c #9BDE58",
"/  c #9BDF59",
"(  c #9CDF5A",
")  c #9CDF5B",
"_  c #9DDF5C",
"`  c #9DDF5D",
"'  c #9FDF5F",
"]  c #9EE05F",
"[  c #98CF63",
"{  c #9FDE60",
"}  c #9CD169",
"|  c #A0DA67",
" . c #A1D76C",
".. c #A2DF68",
"X. c #A3DF69",
"o. c #A3DB6C",
"O. c #A5DD6C",
"+. c #A5DA71",
"@. c #A6DE70",
"#. c #A5D874",
"$. c #AADD79",
"%. c #9FE060",
"&. c #A0E060",
"*. c #A0E061",
"=. c #A1E062",
"-. c #A1E063",
";. c #A1E163",
":. c #A1E064",
">. c #A2E064",
",. c #A2E164",
"<. c #A2E165",
"1. c #A2E166",
"2. c #A3E167",
"3. c #A4E168",
"4. c #A4E269",
"5. c #A5E26A",
"6. c #A6E26A",
"7. c #A7E26C",
"8. c #A7E36D",
"9. c #A8E36F",
"0. c #A8E370",
"q. c #A9E370",
"w. c #AAE372",
"e. c #ABE474",
"r. c #ACE475",
"t. c #ADE476",
"y. c #ADE478",
"u. c #AEE478",
"i. c #AEE578",
"p. c #AEE579",
"a. c #AFE47A",
"s. c #AFE57A",
"d. c #AFE57B",
"f. c #AEE17D",
"g. c #AFE27D",
"h. c #B0E57C",
"j. c #B2E57F",
"k. c #B1E67E",
"l. c #B2E67F",
"z. c #AFDE82",
"x. c #B2E680",
"c. c #B2E582",
"v. c #B4E782",
"b. c #B4E783",
"n. c #B4E685",
"m. c #B5E785",
"M. c #B7E787",
"N. c #B6E689",
"B. c #B8E78B",
"V. c #B9E78D",
"C. c #B9E88B",
"Z. c #BAE98D",
"A. c #BBE88E",
"S. c #BAE88F",
"D. c #BBE98F",
"F. c #BCE990",
"G. c #BCE991",
"H. c #BDE992",
"J. c #BDE993",
"K. c #C0E898",
"L. c #C0E999",
"P. c #C2EB9A",
"I. c #C4EC9E",
"U. c None",
/* pixels */
"U.U.U.U.U.U.U.U.U.U.U.U.U.U.U.U.U.U.U.U.U.U.U.U.U.U.U.U.U.U.U.U.",
"U.U.U.U.U.U.U.U.U.U.U.U.U.U.U.U.U.U.U.U.U.U.U.U.U.U.U.U.U.U.U.U.",
"U.U.U.U.U.U.U.U.U.U.U.U.U.U.U.U.X U.U.U.U.U.U.U.U.U.U.U.U.U.U.U.",
"U.U.U.U.U.U.U.U.U.U.U.U.U.U.U.U.X g @ U.U.U.U.U.U.U.U.U.U.U.U.U.",
"U.U.U.U.U.U.U.U.U.U.U.U.U.U.U.U.X c.N X U.U.U.U.U.U.U.U.U.U.U.U.",
"U.U.U.U.U.U.U.U.U.U.U.U.U.U.U.U.  c.p.Y $ U.U.U.U.U.U.U.U.U.U.U.",
"U.U.U.U.U.U.U.U.U.U.U.U.U.U.U.U.. B.^ p.~ @ U.U.U.U.U.U.U.U.U.U.",
"U.U.U.U.U.U.U.U.U.U.U.U.U.U.U.U.$ B.^ ^ q.{ > U.U.U.U.U.U.U.U.U.",
"U.U.U.U.U.U.U.U.U.U.U.U.U.U.@ $ @ Z.] ] Q 4.+.: U.U.U.U.U.U.U.U.",
"U.U.U.U.U.U.U.U.U.U.U.X 8 U O.p.V.Z.] ] ] R %.4.1 U.U.U.U.U.U.U.",
"U.U.U.U.U.U.U.U.U.U.4 +.L.H.v.h.q.4.,.] Q L u s R 7 $ U.U.U.U.U.",
"U.U.U.U.U.U.U.U.X N L.H.v.v.p.p.q.4.,.] ] p t y p R 8 @ U.U.U.U.",
"U.U.U.U.U.U.U.U.N L.v.M.v.v.h.q.q.4.,...H y y y x L : U.U.U.U.U.",
"U.U.U.U.U.U.U.9 H.l.l.v.v.l.h.q.q.4.,.' u y y c D ; U.U.U.U.U.U.",
"U.U.U.U.U.U.X z.l.l.l.l.v.Z.H.Z.Z.H.,.H y y b V ; U.U.U.U.U.U.U.",
"U.U.U.U.U.U.r Z.q.q.q.H.H.} g 9 4 Z.,.p y b V @ U.U.U.U.U.U.U.U.",
"U.U.U.U.U.U.Y p.4.q.H. .: U.U.U.$ B.c y S z @ U.U.U.U.U.U.U.U.U.",
"U.U.U.U.U.U.#.q.4.B.[ @ U.U.U.U.X O.u S d $ U.U.U.U.U.U.U.U.U.U.",
"U.U.U.U.U.@ $.,.9.p.@ U.U.U.U.U.X R L d X U.U.U.U.U.U.U.U.U.U.U.",
"U.U.U.U.U.@ O.,.p.n U.U.U.U.U.U.X L e X U.U.U.U.U.U.U.U.U.U.U.U.",
"U.U.U.U.U.U.! ..p.4 U.U.U.U.U.U.  8 X U.U.U.U.U.U.U.U.U.U.U.U.U.",
"U.U.U.U.U.U.k ,.@.> U.U.U.U.U.U.X X U.U.U.U.U.U.U.U.U.U.U.U.U.U.",
"U.U.U.U.U.U.5 ..,.6 U.U.U.U.U.U.U.U.U.U.U.U.U.U.U.U.U.U.U.U.U.U.",
"U.U.U.U.U.U.U.j ^ h U.U.U.U.U.U.U.U.U.U.U.U.U.U.U.U.U.U.U.U.U.U.",
"U.U.U.U.U.U.U.U.C L U.U.U.U.U.U.U.U.U.U.U.U.U.U.U.U.U.U.U.U.U.U.",
"U.U.U.U.U.U.U.U.U.U.U.U.U.U.U.U.U.U.U.U.U.U.U.U.U.U.U.U.U.U.U.U.",
"U.U.U.U.U.U.U.U.U.U.U.U.U.U.U.U.U.U.U.U.U.U.U.U.U.U.U.U.U.U.U.U.",
"U.U.U.U.U.U.U.U.U.U.U.U.U.U.U.U.U.U.U.U.U.U.U.U.U.U.U.U.U.U.U.U.",
"U.U.U.U.U.U.U.U.U.U.U.U.U.U.U.U.U.U.U.U.U.U.U.U.U.U.U.U.U.U.U.U.",
"U.U.U.U.U.U.U.U.U.U.U.U.U.U.U.U.U.U.U.U.U.U.U.U.U.U.U.U.U.U.U.U.",
"U.U.U.U.U.U.U.U.U.U.U.U.U.U.U.U.U.U.U.U.U.U.U.U.U.U.U.U.U.U.U.U.",
"U.U.U.U.U.U.U.U.U.U.U.U.U.U.U.U.U.U.U.U.U.U.U.U.U.U.U.U.U.U.U.U."
};
