/* XPM */
static const char *IDI_ICON_UNDO_xpm[] = {
/* columns rows colors chars-per-pixel */
"32 32 171 2 ",
"   c #C4A000",
".  c #C6A100",
"X  c #C5A200",
"o  c #C6A200",
"O  c #C6A300",
"+  c #C6A201",
"@  c #C6A301",
"#  c #C5A102",
"$  c #C5A203",
"%  c #C5A303",
"&  c #C6A202",
"*  c #C6A302",
"=  c #C6A400",
"-  c #C5A304",
";  c #C5A305",
":  c #C6A304",
">  c #C6A406",
",  c #C6A407",
"<  c #C8A305",
"1  c #C8A506",
"2  c #C7A50B",
"3  c #C8A60D",
"4  c #C8A70E",
"5  c #C9A80C",
"6  c #CFAF0C",
"7  c #D1B005",
"8  c #D2B108",
"9  c #D6B90A",
"0  c #CBAA10",
"q  c #CBAA11",
"w  c #C9A812",
"e  c #D3B511",
"r  c #D5B713",
"t  c #D6B910",
"y  c #D6B911",
"u  c #D2B41B",
"i  c #D4B71F",
"p  c #DABE1A",
"a  c #D9BD1D",
"s  c #CCAE20",
"d  c #CDAE20",
"f  c #CDAF23",
"g  c #CEAF24",
"h  c #D2B420",
"j  c #D2B629",
"k  c #D9BF31",
"l  c #EDD400",
"z  c #EDD401",
"x  c #EDD402",
"c  c #EDD403",
"v  c #EDD506",
"b  c #EDD509",
"n  c #EDD50A",
"m  c #EDD60E",
"M  c #E5CB16",
"N  c #EED610",
"B  c #EED611",
"V  c #EED713",
"C  c #EAD314",
"Z  c #EED715",
"A  c #EED71B",
"S  c #EAD31F",
"D  c #EED81A",
"F  c #EED81C",
"G  c #EFD81D",
"H  c #DCC331",
"J  c #DDC436",
"K  c #E4CB20",
"L  c #E4CD2E",
"P  c #EFD920",
"I  c #EFD921",
"U  c #EFD922",
"Y  c #EFDA26",
"T  c #EFDA29",
"R  c #F0DB2D",
"E  c #E2CA31",
"W  c #E2CB3C",
"Q  c #EFDC33",
"!  c #ECD835",
"~  c #F0DC32",
"^  c #F0DC34",
"/  c #F0DC35",
"(  c #D7BD43",
")  c #D8BD42",
"_  c #DDC543",
"`  c #E2CB49",
"'  c #E7D240",
"]  c #EBD740",
"[  c #EAD649",
"{  c #EDDA4A",
"}  c #F1DE40",
"|  c #F1DF44",
" . c #F2DF47",
".. c #E2CD58",
"X. c #E0CA5C",
"o. c #EBD857",
"O. c #EBDA5D",
"+. c #F1DF5D",
"@. c #F2E04B",
"#. c #F2E04C",
"$. c #F2E04D",
"%. c #F2E150",
"&. c #F3E255",
"*. c #F3E256",
"=. c #F3E25A",
"-. c #F3E35A",
";. c #F3E35B",
":. c #F3E35C",
">. c #F3E35E",
",. c #F3E45F",
"<. c #EBD962",
"1. c #EFDE62",
"2. c #E4D26C",
"3. c #E9D76D",
"4. c #ECDD7B",
"5. c #F3E460",
"6. c #F3E461",
"7. c #F3E462",
"8. c #F3E463",
"9. c #F4E464",
"0. c #F4E565",
"q. c #F4E566",
"w. c #F4E568",
"e. c #F4E56A",
"r. c #F4E66B",
"t. c #F4E66C",
"y. c #F4E66D",
"u. c #F4E66E",
"i. c #F4E66F",
"p. c #F2E572",
"a. c #F4E670",
"s. c #F4E771",
"d. c #F1E277",
"f. c #F3E574",
"g. c #F4E775",
"h. c #F5E775",
"j. c #F5E776",
"k. c #F4E777",
"l. c #F1E47A",
"z. c #F4E778",
"x. c #F5E779",
"c. c #F5E878",
"v. c #F5E87B",
"b. c #F5E87C",
"n. c #F5E87D",
"m. c #F5E97D",
"M. c #F5E97F",
"N. c #EFE287",
"B. c #F6EA87",
"V. c #F6EB8B",
"C. c #F5EA8D",
"Z. c #F6EB8D",
"A. c #EFE191",
"S. c #F2E897",
"D. c #F7EC95",
"F. c #F3E99A",
"G. c #F7EE9C",
"H. c #F8EE9D",
"J. c #F4EAA6",
"K. c #F8EFA3",
"L. c #F8EFA5",
"P. c #F8EFA6",
"I. c #F6EEA9",
"U. c #F7EEAC",
"Y. c #F8F0A8",
"T. c #F8F0A9",
"R. c #F8F0AA",
"E. c #F8F0AB",
"W. c #F8F1AE",
"Q. c #F8F0AF",
"!. c None",
/* pixels */
"!.!.!.!.!.!.!.!.!.!.!.!.!.!.!.!.!.!.!.!.!.!.!.!.!.!.!.!.!.!.!.!.",
"!.!.!.!.!.!.!.!.!.!.!.!.!.!.!.!.!.!.!.!.!.!.!.!.!.!.!.!.!.!.!.!.",
"!.!.!.!.!.!.!.!.!.!.!.!.!.!.!.o !.!.!.!.!.!.!.!.!.!.!.!.!.!.!.!.",
"!.!.!.!.!.!.!.!.!.!.!.!.!.o X.o !.!.!.!.!.!.!.!.!.!.!.!.!.!.!.!.",
"!.!.!.!.!.!.!.!.!.!.!.!.5 4.Y., !.!.!.!.!.!.!.!.!.!.!.!.!.!.!.!.",
"!.!.!.!.!.!.!.!.!.!.!.g F.B.J.o !.!.!.!.!.!.!.!.!.!.!.!.!.!.!.!.",
"!.!.!.!.!.!.!.!.!.!.( Y.b.>.E.o !.!.!.!.!.!.!.!.!.!.!.!.!.!.!.!.",
"!.!.!.!.!.!.!.!.o 2.E.b.8.>.K.1 !.!.!.!.!.!.!.!.!.!.!.!.!.!.!.!.",
"!.!.!.!.!.!.!.4 A.E.b.s.w.8.E.1 o o o !.!.!.!.!.!.!.!.!.!.!.!.!.",
"!.!.!.!.!.!.g J.K.b.s.s.8.8.E.H.Z.z.o.H 1 !.!.!.!.!.!.!.!.!.!.!.",
"!.!.!.!.!.( U.Z.s.s.s.t.8.>.*.$.Q R R >.z.` w !.!.!.!.!.!.!.!.!.",
"!.!.!.o X.E.k.t.s.t.t.t.8.*.Z x c c c c Z  .d.j !.!.!.!.!.!.!.!.",
"!.!.!.!.d F.Z.8.8.8.8.>.$.n x x c c c c c c Z s.H !.!.!.!.!.!.!.",
"!.!.!.!.!.4 N.D.8.>.>.$.n x x x c c c c c c c Z s.g !.!.!.!.!.!.",
"!.!.!.!.!.!.o 3.H.8./ n x x v.v.s.t.*.Y c c c c R <.o !.!.!.!.!.",
"!.!.!.!.!.!.!.o _ s.Y x x x b.5 w u H o.t.Q c c c 8.i !.!.!.!.!.",
"!.!.!.!.!.!.!.!.!.h s.^ c c b., !.!.!.o r 8./ c c R W !.!.!.!.!.",
"!.!.!.!.!.!.!.!.!.!.w 1.] c t.o !.!.!.!.!.o { Q c D ' !.!.!.!.!.",
"!.!.!.!.!.!.!.!.!.!.!.1 { $.8.o !.!.!.!.!.!.6 $.c m ] o !.!.!.!.",
"!.!.!.!.!.!.!.!.!.!.!.!.o E >.o !.!.!.!.!.!.o L D B Q o !.!.!.!.",
"!.!.!.!.!.!.!.!.!.!.!.!.!.o a o !.!.!.!.!.!.!.p Y D K o !.!.!.!.",
"!.!.!.!.!.!.!.!.!.!.!.!.!.!.o o !.!.!.!.!.!.!.r D Y r !.!.!.!.!.",
"!.!.!.!.!.!.!.!.!.!.!.!.!.!.!.!.!.!.!.!.!.!.!.r G S o !.!.!.!.!.",
"!.!.!.!.!.!.!.!.!.!.!.!.!.!.!.!.!.!.!.!.!.!.o M D 8 !.!.!.!.!.!.",
"!.!.!.!.!.!.!.!.!.!.!.!.!.!.!.!.!.!.!.!.!.!.7 Z 9 !.!.!.!.!.!.!.",
"!.!.!.!.!.!.!.!.!.!.!.!.!.!.!.!.!.!.!.!.!.!.!.!.!.!.!.!.!.!.!.!.",
"!.!.!.!.!.!.!.!.!.!.!.!.!.!.!.!.!.!.!.!.!.!.!.!.!.!.!.!.!.!.!.!.",
"!.!.!.!.!.!.!.!.!.!.!.!.!.!.!.!.!.!.!.!.!.!.!.!.!.!.!.!.!.!.!.!.",
"!.!.!.!.!.!.!.!.!.!.!.!.!.!.!.!.!.!.!.!.!.!.!.!.!.!.!.!.!.!.!.!.",
"!.!.!.!.!.!.!.!.!.!.!.!.!.!.!.!.!.!.!.!.!.!.!.!.!.!.!.!.!.!.!.!.",
"!.!.!.!.!.!.!.!.!.!.!.!.!.!.!.!.!.!.!.!.!.!.!.!.!.!.!.!.!.!.!.!.",
"!.!.!.!.!.!.!.!.!.!.!.!.!.!.!.!.!.!.!.!.!.!.!.!.!.!.!.!.!.!.!.!."
};
