/* XPM */
static const char *IDI_ICON_GO_xpm[] = {
/* columns rows colors chars-per-pixel */
"32 32 221 2",
"   c black",
".  c #3A7204",
"X  c #3A7304",
"o  c #3A7305",
"O  c #3A7404",
"+  c #3B7404",
"@  c #3B7405",
"#  c #3C7404",
"$  c #3C7504",
"%  c #3C7505",
"&  c #3D7506",
"*  c #3C7605",
"=  c #41790B",
"-  c #41790C",
";  c #42790D",
":  c #427A0E",
">  c #488016",
",  c #4B8116",
"<  c #4C821A",
"1  c #4D821B",
"2  c #4E9905",
"3  c #4F9B05",
"4  c #50851D",
"5  c #509C05",
"6  c #519E06",
"7  c #529E07",
"8  c #529F06",
"9  c #578B23",
"0  c #578B25",
"q  c #5B8B2C",
"w  c #598C29",
"e  c #5D8D2E",
"r  c #52A007",
"t  c #53A007",
"y  c #54A207",
"u  c #54A307",
"i  c #54A308",
"p  c #55A408",
"a  c #56A508",
"s  c #57A608",
"d  c #57A709",
"f  c #58A809",
"g  c #59A909",
"h  c #58A80B",
"j  c #59AA09",
"k  c #59AA0A",
"l  c #5AAC0A",
"z  c #5BAD0A",
"x  c #5BAE0B",
"c  c #5CAD0B",
"v  c #5CAE0B",
"b  c #5CAF0B",
"n  c #5DAF0B",
"m  c #5BA810",
"M  c #5DB00B",
"N  c #5EB10B",
"B  c #5EB10C",
"V  c #5EB20C",
"C  c #5FB20C",
"Z  c #5FB30C",
"A  c #689C37",
"S  c #6A9D39",
"D  c #61A41F",
"F  c #62A61F",
"G  c #62AD18",
"H  c #60B40C",
"J  c #60B50D",
"K  c #61B50D",
"L  c #61B60D",
"P  c #61B70D",
"I  c #62B70D",
"U  c #63B90E",
"Y  c #63BA0E",
"T  c #64BB0E",
"R  c #65BC0F",
"E  c #62B015",
"W  c #67B31B",
"Q  c #67BF10",
"!  c #65A625",
"~  c #66A727",
"^  c #68AB27",
"/  c #69A92B",
"(  c #6EAE30",
")  c #69B221",
"_  c #6DB328",
"`  c #6FB02F",
"'  c #6EB22C",
"]  c #70AD35",
"[  c #71AD37",
"{  c #73AF39",
"}  c #74AF3B",
"|  c #70B52C",
" . c #75BE2B",
".. c #71B132",
"X. c #76B03E",
"o. c #77B23C",
"O. c #79B63E",
"+. c #7BBB3D",
"@. c #729E46",
"#. c #77A24E",
"$. c #7AAA4A",
"%. c #78B140",
"&. c #78B141",
"*. c #79B342",
"=. c #7AB242",
"-. c #7AB343",
";. c #7AB344",
":. c #7DB447",
">. c #7CB644",
",. c #7DB646",
"<. c #7EB745",
"1. c #7EB24A",
"2. c #7EB549",
"3. c #7FB54A",
"4. c #7FB54B",
"5. c #7CB841",
"6. c #7CB940",
"7. c #7CBA40",
"8. c #7FB946",
"9. c #7FBA45",
"0. c #7EBC41",
"q. c #7FB848",
"w. c #68C010",
"e. c #6AC411",
"r. c #6CC317",
"t. c #6DC714",
"y. c #6FC818",
"u. c #72CB19",
"i. c #7AD223",
"p. c #85AF5D",
"a. c #80B64C",
"s. c #81B64D",
"d. c #81B74C",
"f. c #82B74F",
"g. c #80BB47",
"h. c #81B94A",
"j. c #80BB48",
"k. c #82B94D",
"l. c #83BA4C",
"z. c #83BA4D",
"x. c #84BA4D",
"c. c #83B750",
"v. c #84B850",
"b. c #84B851",
"n. c #85B853",
"m. c #85B952",
"M. c #86B953",
"N. c #86BA52",
"B. c #86BA53",
"V. c #86B954",
"C. c #8AB65C",
"Z. c #88BB57",
"A. c #8BBC5B",
"S. c #8CBD5D",
"D. c #8DBD5E",
"F. c #8EB469",
"G. c #94BE6B",
"H. c #97BD70",
"J. c #84C93E",
"K. c #8FC25E",
"L. c #91C35E",
"P. c #94D455",
"I. c #91C064",
"U. c #92C064",
"Y. c #92C065",
"T. c #92C066",
"R. c #96C36A",
"E. c #9CCB6D",
"W. c #9DCD6E",
"Q. c #9EC776",
"!. c #A1C67D",
"~. c #A0C979",
"^. c #A2C97E",
"/. c #A3CA7E",
"(. c #A3CB7E",
"). c #A4CC7E",
"_. c #A6CF7F",
"`. c #A2DD67",
"'. c #A3D075",
"]. c #A4D275",
"[. c #AEDE7D",
"{. c #AEDF7D",
"}. c #AEE07E",
"|. c #AFE37C",
" X c #9FC280",
".X c #A8CB85",
"XX c #AECD91",
"oX c #A8D180",
"OX c #AAD480",
"+X c #ACD781",
"@X c #ADD08B",
"#X c #AFD18E",
"$X c #ADD982",
"%X c #AFDB82",
"&X c #AFDC84",
"*X c #B0D18F",
"=X c #B0DD83",
"-X c #B1DE83",
";X c #B2D292",
":X c #B4D495",
">X c #B5D597",
",X c #B5D299",
"<X c #B5D498",
"1X c #B8D59B",
"2X c #B8D69A",
"3X c #BBD8A0",
"4X c #BDD8A2",
"5X c #BED9A3",
"6X c #BFD9A4",
"7X c #BFDAA5",
"8X c #B2E184",
"9X c #C0DAA6",
"0X c #C0DBA6",
"qX c #C2DCA9",
"wX c #C2DCAA",
"eX c #C5DDAD",
"rX c #C7DEB0",
"tX c #C7DFB1",
"yX c #CBE0B7",
"uX c #CDE2B8",
"iX c None",
/* pixels */
"iXiXiXiXiXiXiXiXiXiXiXiXiXiXiXiXiXiXiXiXiXiXiXiXiXiXiXiXiXiXiXiX",
"iXiXiXiXiXiXiXiXiXiXiXiXiXiXiXiXiXiXiXiXiXiXiXiXiXiXiXiXiXiXiXiX",
"iXiXiXiXiXiXiXiXiXiXiXiXiXiXiXiXiXiXiXiXiXiXiXiXiXiXiXiXiXiXiXiX",
"iXiXiXiXiXiXiXiXiXiXiXiXiXiXiXiXiXiXiXiXiXiXiXiXiXiXiXiXiXiXiXiX",
"iXiXiXiXiXiXiXiXiXiXiXiXiXiXX iXiXiXiXiXiXiXiXiXiXiXiXiXiXiXiXiX",
"iXiXiXiXiXiXiXiXiXiXiXiXiXiXX q iXiXiXiXiXiXiXiXiXiXiXiXiXiXiXiX",
"iXiXiXiXiXiXiXiXiXiXiXiXiXiXX uX#.iXiXiXiXiXiXiXiXiXiXiXiXiXiXiX",
"iXiXiXiXiXiXiXiXiXiXiXiXiXiXX uXrXF.* iXiXiXiXiXiXiXiXiXiXiXiXiX",
"iXiXiXiXiXiXiXiXiXiXiXiXiXiXX tXQ.1X!.: iXiXiXiXiXiXiXiXiXiXiXiX",
"iXiXiXiXiXiXiXiXiXiXiXiXiXiXX eXR.G.*XXX< iXiXiXiXiXiXiXiXiXiXiX",
"iXiXiXiXiXX O O O X O O X O O wXG.A.A.~.,Xe iXiXiXiXiXiXiXiXiXiX",
"iXiXiXiXiXX 2X3X5X5X7X7X0X0X0XwXA.Z.Z.c.T.<X@.iXiXiXiXiXiXiXiXiX",
"iXiXiXiXiXX 2X2.2.s.c.c.c.Z.B.B.N.c.x.s.2.c.;Xp.* iXiXiXiXiXiXiX",
"iXiXiXiXiXX :X&.;.:.2.a.l.l.x.x.l.j.j.:.>.&.&.).H.: iXiXiXiXiXiX",
"iXiXiXiXiXX :X} } &.&.<.:.8.j.8.j.<.6...^ D D ! G.Q.< iXiXiXiXiX",
"iXiXiXiXiXX ;X] { { } O.+.6.0.+.| G h a u 5 5 2 2 } .Xw iXiXiXiX",
"iXiXiXiXiXX @X~ / ( ' ' _ ) E n x x x f f u 8 5 2 ] /.0 * iXiXiX",
"iXiXiXiXiXO /.2 2 7 i f h n Z H Z Z n x h a u 5 a.G.> iXiXiXiXiX",
"iXiXiXiXiXX /.2 5 a f x Z Z H H Y H H n x h m L.C.= iXiXiXiXiXiX",
"iXiXiXiXiXX /.2 y a h n Z H T T T T Y H Z W E.$.# iXiXiXiXiXiXiX",
"iXiXiXiXiXX /.).oXoXOX+X$X=X=X=Xr.Q T T  .'.A X iXiXiXiXiXiXiXiX",
"iXiXiXiXiXX X X X X X X X X X [.u.e.Q J.'.9 iXiXiXiXiXiXiXiXiXiX",
"iXiXiXiXiXiXiXiXiXiXiXiXiXiX* {.u.t.P.E.> iXiXiXiXiXiXiXiXiXiXiX",
"iXiXiXiXiXiXiXiXiXiXiXiXiXiX# }.i.`.L.= iXiXiXiXiXiXiXiXiXiXiXiX",
"iXiXiXiXiXiXiXiXiXiXiXiXiXiX# -X|.1.* iXiXiXiXiXiXiXiXiXiXiXiXiX",
"iXiXiXiXiXiXiXiXiXiXiXiXiXiX* =XS X iXiXiXiXiXiXiXiXiXiXiXiXiXiX",
"iXiXiXiXiXiXiXiXiXiXiXiXiXiXX 4 iXiXiXiXiXiXiXiXiXiXiXiXiXiXiXiX",
"iXiXiXiXiXiXiXiXiXiXiXiXiXiXX iXiXiXiXiXiXiXiXiXiXiXiXiXiXiXiXiX",
"iXiXiXiXiXiXiXiXiXiXiXiXiXiXiXiXiXiXiXiXiXiXiXiXiXiXiXiXiXiXiXiX",
"iXiXiXiXiXiXiXiXiXiXiXiXiXiXiXiXiXiXiXiXiXiXiXiXiXiXiXiXiXiXiXiX",
"iXiXiXiXiXiXiXiXiXiXiXiXiXiXiXiXiXiXiXiXiXiXiXiXiXiXiXiXiXiXiXiX",
"iXiXiXiXiXiXiXiXiXiXiXiXiXiXiXiXiXiXiXiXiXiXiXiXiXiXiXiXiXiXiXiX"
};
