/* XPM */
static const char *IDI_ICON_LINKED_xpm[] = {
/* columns rows colors chars-per-pixel */
"16 16 97 2 ",
"   c #1B2C40",
".  c #1C2D41",
"X  c #1C2F40",
"o  c #1F3243",
"O  c #464C64",
"+  c #445664",
"@  c #485663",
"#  c #44536A",
"$  c #46576B",
"%  c #525B6A",
"&  c #485871",
"*  c #596271",
"=  c #596073",
"-  c #52647A",
";  c #53637C",
":  c #54627C",
">  c #58697D",
",  c #6A7382",
"<  c #657189",
"1  c #6E7E97",
"2  c #737B92",
"3  c #718391",
"4  c #718296",
"5  c #798B99",
"6  c #7C889E",
"7  c #8F98A7",
"8  c #8C97AB",
"9  c #8C99AA",
"0  c #949DAC",
"q  c #979DAD",
"w  c #8E9AB2",
"e  c #8D9BB6",
"r  c #99A0AA",
"t  c #9AA1AB",
"y  c #9DA6AD",
"u  c #8FA0B4",
"i  c #91A2B6",
"p  c #9BA3B0",
"a  c #9DA4B6",
"s  c #94A0B8",
"d  c #95A5BE",
"f  c #99A5BD",
"g  c #98AAB8",
"h  c #98A9BD",
"j  c #9FACBF",
"k  c #A2A9B3",
"l  c #A3A9B7",
"z  c #A3ADB7",
"x  c #ACB4BF",
"c  c #9BABC4",
"v  c #9FAFC8",
"b  c #9CB1C4",
"n  c #A3ABC0",
"m  c #A8B5C6",
"M  c #A2B7CA",
"N  c #ADBACB",
"B  c #AABBCF",
"V  c #AFBCCD",
"C  c #B3B7C3",
"Z  c #B4BBC5",
"A  c #B6BDC7",
"S  c #B2BFD0",
"D  c #B5BDD4",
"F  c #ACC0CB",
"G  c #BEC2CB",
"H  c #BBC4CD",
"J  c #BCC4CF",
"K  c #BDC6D5",
"L  c #B6C8D6",
"P  c #B4C0D8",
"I  c #B9C5DD",
"U  c #BCCDDD",
"Y  c #BACAE3",
"T  c #C6CDD5",
"R  c #C3CCDB",
"E  c #C1D1DE",
"W  c #C9D0DA",
"Q  c #CDD4DE",
"!  c #D3D6DD",
"~  c #C7D9E7",
"^  c #CFD8E7",
"/  c #C7D2EE",
"(  c #CFD9F4",
")  c #D6DFF0",
"_  c #D2DEF6",
"`  c #CEE0EE",
"'  c #D0E2F0",
"]  c #D5E2F3",
"[  c #E8F5FF",
"{  c #EBF6FF",
"}  c #EAF9FF",
"|  c #E8FFFF",
" . c #EAFFFF",
".. c #EEFFFF",
"X. c #F2FCFF",
"o. c #F2FFFF",
"O. c None",
/* pixels */
"O.O.O.O.O.O.O.O.O.O.O.O.O.O.O.O.",
"O.O.O.O.O.O.O.O.O.O.O.O.O.O.O.O.",
"O.O.O.O.O.O.O.O.O.O.O.O.O.O.O.O.",
"O.O.O.O.O.O.O.O.O.O.O.O.O.O.O.O.",
"O.O.O.O.O.O.O.O.O.O.O.O.O.O.O.O.",
"O.O.! C l p l O.O.W Z l t t Z O.",
"O.T H ] { } U 5 N V ] o.[ S 9 m ",
"O.H R n # - b M M Y c & - c d 4 ",
"O.y o.@ E F } } } ] ~ 4 L g ` + ",
"O.x ^ 8 5 u o o     # 4 N h u > ",
"O.! f D _ / w - s f P _ U w < w ",
"O.O.H q * O 2 n O.K 7 * % , 0 O.",
"O.O.O.O.O.O.O.O.O.O.O.O.O.O.O.O.",
"O.O.O.O.O.O.O.O.O.O.O.O.O.O.O.O.",
"O.O.O.O.O.O.O.O.O.O.O.O.O.O.O.O.",
"O.O.O.O.O.O.O.O.O.O.O.O.O.O.O.O."
};
