/* XPM */
static const char *IDI_ICON_PAGE_MAGNIFIER_xpm[] = {
/* columns rows colors chars-per-pixel */
"16 16 17 1",
"  c #040404",
". c gray20",
"X c gray30",
"o c #555555",
"O c gray40",
"+ c #777777",
"@ c #336699",
"# c #6666CC",
"$ c #6699CC",
"% c #868686",
"& c gray60",
"* c #A0A0A4",
"= c #B2B2B2",
"- c #99CCCC",
"; c #D7D7D7",
": c #DDDDDD",
"> c None",
/* pixels */
">>>>%%%%>>>>>>>>",
">>%&====&+>>>>>>",
">%**$$$$**+>>>>>",
">&*$$$$$$*&>>>>>",
"%=$$$$$$$$=+>>>>",
"%=@$$$$$$#=+>>>>",
"%=@#$$$$#@=+>>>>",
"%=@@@###@#=%>>>>",
">%*@@@@@@-&>>>>>",
">O**@@@@-*o>>>>>",
">>O&;::;&X+..>>>",
">>>>OOOO>>.o%.>>",
">>>>>>>>>>.%o%.>",
">>>>>>>>>>>.%o%.",
">>>>>>>>>>>>.%%.",
">>>>>>>>>>>>>..>"
};
