/* XPM */
static const char *IDI_ICON_SELECT_RECTANGULAR_xpm[] = {
/* columns rows colors chars-per-pixel */
"32 32 64 1",
"  c black",
". c #141413",
"X c #1C1C1B",
"o c #222222",
"O c #333432",
"+ c #3B3C39",
"@ c #454543",
"# c #484A47",
"$ c #535453",
"% c #565655",
"& c #5F615D",
"* c #636362",
"= c #656565",
"- c #6B6C68",
"; c #747672",
": c #757675",
"> c #777975",
", c #787A76",
"< c #7D7E7C",
"1 c #80827D",
"2 c #81837E",
"3 c #848582",
"4 c #888B85",
"5 c #8C8E89",
"6 c #8F918C",
"7 c #8F908E",
"8 c #989B95",
"9 c #999A97",
"0 c #9C9E99",
"q c #A0A09F",
"w c #A0A39D",
"e c #A4A4A3",
"r c #A7A7A7",
"t c gray67",
"y c #AAACA9",
"u c #B1B3AF",
"i c #B2B2B2",
"p c gray71",
"a c #B6B6B5",
"s c #BDBDBC",
"d c #BFC1BD",
"f c #C2C4BF",
"g c #C1C1C0",
"h c #C6C6C5",
"j c #C6C7C5",
"k c #CACBC9",
"l c #CDD0CC",
"z c #CFD0CF",
"x c #D0D1CF",
"c c #D4D5D3",
"v c #D7D9D5",
"b c #DBDCD8",
"n c #DBDCDA",
"m c #E1E2E0",
"M c #E3E5E2",
"N c #E7E8E5",
"B c #E9EBE7",
"V c gray93",
"C c #EFF0EE",
"Z c #F4F4F4",
"A c gray97",
"S c #FBFBFA",
"D c gray99",
"F c None",
/* pixels */
"FFFFFFFFFFFFFFFFFFFFFFFFFFFFFFFF",
"FFFFFFFFFFFFFFFFFFFFFFFFFFFFFFFF",
"FFFFFFFFFFFFFFFFFFFFFFFFFFFFFFFF",
"FFFFFFFFFFFFFFFFFFFFFFFFFFFFFFFF",
"FFFFFFFFFFFFFFFFFFFFFFFFFFFFFFFF",
"FFFFFFFFFFFFFFFFFFFFFFFFFFFFFFFF",
"FFFF %r%%r%%r%%e -9 >7 33 7, FFF",
"FFFF20nssMshMahnplnpkntvctng2FFF",
"FFFF2qZDAZSZZAZZAAAAZZZZZADl2FFF",
"FFFF %VBcccccccckckkkckckcDe FFF",
"FFFF5rZMccckkczzckzkllllkcZk5FFF",
"FFFF:8ZMcckcckzzkcclllllkkZj>FFF",
"FFFF %VNkcckczzzcczlllllklAq FFF",
"FFFF8iZMckkczzzzzklllllljlZc9FFF",
"FFFF=5ZMckczzzzcllllllkkjlZh*FFF",
"FFFF &VMkczzzzzklllllkkkjlZr FFF",
"FFFFwaZMzzkcllllllllkkkjjlZnqFFF",
"FFFF$2ZMzzcllllllllkkkjjjlZs%FFF",
"FFFF *VMkkllllllllkkkjjjhlZe FFF",
"FFFFrsZmlclllllllkkkjjjjhkZnrFFF",
"FFFF$<ZMkllkkkkkjjjjjjhhgkZp%FFF",
"FFFFO-VCnnnnnnnnnnnnnnnvvnDrOFFF",
"FFFFrsZZZDZZDZZSZZZZZZZZZZDneFFF",
"FFFF@-g<<h:3h-6d-8s=qp=tr=u0@FFF",
"FFFF 4o#3X$<.&:2+4o#3X$<.*:F FFF",
"FFFFFFFFFFFFFFFFFFFFFFFFFFFFFFFF",
"FFFFFFFFFFFFFFFFFFFFFFFFFFFFFFFF",
"FFFFFFFFFFFFFFFFFFFFFFFFFFFFFFFF",
"FFFFFFFFFFFFFFFFFFFFFFFFFFFFFFFF",
"FFFFFFFFFFFFFFFFFFFFFFFFFFFFFFFF",
"FFFFFFFFFFFFFFFFFFFFFFFFFFFFFFFF",
"FFFFFFFFFFFFFFFFFFFFFFFFFFFFFFFF"
};
