/* XPM */
static const char *IDI_ICON_SELECT_LASSO_xpm[] = {
/* columns rows colors chars-per-pixel */
"32 32 173 2",
"   c black",
".  c #82817D",
"X  c #82837F",
"o  c #84827D",
"O  c #838580",
"+  c #848681",
"@  c #848782",
"#  c #858782",
"$  c #858882",
"%  c #868883",
"&  c #878984",
"*  c #888781",
"=  c #898783",
"-  c #888884",
";  c #888984",
":  c #888A85",
">  c #898B85",
",  c #898A86",
"<  c #898B86",
"1  c #8B8985",
"2  c #8B8B86",
"3  c #8D8B85",
"4  c #8E8D87",
"5  c #8C8D89",
"6  c #8D8D88",
"7  c #8C8E89",
"8  c #8D8E8A",
"9  c #8D8F8A",
"0  c #8E8E8A",
"q  c #8E8F8A",
"w  c #8E8F8B",
"e  c #8F8F8D",
"r  c #8E908A",
"t  c #8E908B",
"y  c #8F908B",
"u  c #8F918C",
"i  c #93908B",
"p  c #91918D",
"a  c #91928D",
"s  c #91938E",
"d  c #92938E",
"f  c #93938E",
"g  c #939590",
"h  c #949590",
"j  c #969691",
"k  c #969792",
"l  c #979994",
"z  c #979995",
"x  c #999792",
"c  c #989892",
"v  c #989992",
"b  c #999992",
"n  c #9A9A93",
"m  c #989994",
"M  c #989995",
"N  c #999994",
"B  c #989A95",
"V  c #999A95",
"C  c #989A96",
"Z  c #999A96",
"A  c #9A9A95",
"S  c #9C9994",
"D  c #9C9C95",
"F  c #9C9C97",
"G  c #9D9C97",
"H  c #9E9D96",
"J  c #9B9C98",
"K  c #9C9C99",
"L  c #9C9D98",
"P  c #9D9D98",
"I  c #9D9E99",
"U  c #9F9E98",
"Y  c #9F9F9A",
"T  c #9FA09B",
"R  c #9FA09C",
"E  c #A09F9A",
"W  c #A29F9A",
"Q  c #A0A19C",
"!  c #A1A19C",
"~  c #A1A19D",
"^  c #A2A29C",
"/  c #A3A49F",
"(  c #A4A39E",
")  c #A6A59F",
"_  c #A6A5A2",
"`  c #A6A7A3",
"'  c #A7A7A3",
"]  c #A8A6A0",
"[  c #A9A7A2",
"{  c #A8A6A4",
"}  c #AAA8A2",
"|  c #ABAAA3",
" . c #A8A8A4",
".. c #A8A8A5",
"X. c #A8A9A4",
"o. c #A8A9A5",
"O. c #AAAAA6",
"+. c #AAABA7",
"@. c #ACAAA5",
"#. c #ACABA7",
"$. c #ABACA8",
"%. c #ABACA9",
"&. c #ACACA9",
"*. c #ADACA8",
"=. c #ADAEAB",
"-. c #AEAEA9",
";. c #B1B0AD",
":. c #B2B0AC",
">. c #B2B1AC",
",. c #B2B2AD",
"<. c #B7B3AA",
"1. c #B6B4AE",
"2. c #BBB7AF",
"3. c #BBB8AF",
"4. c #BCB8AF",
"5. c #B3B4B1",
"6. c #B4B5B2",
"7. c #B6B5B1",
"8. c #B6B6B3",
"9. c #B7B7B3",
"0. c #B7B7B4",
"q. c #B7B7B6",
"w. c #B8B6B5",
"e. c #B9B8B2",
"r. c #B9B8B3",
"t. c #B9B9B6",
"y. c #BBBBB7",
"u. c #BCBCB7",
"i. c #BDBCB7",
"p. c #BABBB9",
"a. c #BCBCB8",
"s. c #BDBEBA",
"d. c #BEBDB8",
"f. c #BEBDB9",
"g. c #BEBEBB",
"h. c #BFBFBC",
"j. c #C0BEBD",
"k. c #C0C0BB",
"l. c #C3C0BA",
"z. c #C1C1BE",
"x. c #C1C2BE",
"c. c #C3C0BD",
"v. c #C2C1BE",
"b. c #C3C3BF",
"n. c #C6C2BD",
"m. c #C7C3BD",
"M. c #C5C4C0",
"N. c #C5C6C3",
"B. c #C6C7C2",
"V. c #C7C7C4",
"C. c #C9C7C0",
"Z. c #C9C7C2",
"A. c #CAC8C3",
"S. c #CBC8C4",
"D. c #CCCCCA",
"F. c #CDCDCB",
"G. c #CECCC9",
"H. c #CFCFCE",
"J. c #D0D0CE",
"K. c #D1D0CF",
"L. c #D2D0CD",
"P. c #D3D2CE",
"I. c #D4D2CC",
"U. c #D2D1D0",
"Y. c #D3D3D1",
"T. c #D4D4D2",
"R. c #D8D6D2",
"E. c #DAD8D4",
"W. c #DBD8D5",
"Q. c #DBDBD9",
"!. c #DCDBD8",
"~. c #DDDBD8",
"^. c None",
/* pixels */
"^.^.^.^.^.^.^.^.^.^.^.^.^.^.^.^.^.^.^.^.^.^.^.^.^.^.^.^.^.^.^.^.",
"^.^.^.^.^.^.^.^.^.^.^.^.^.^.^.^.^.^.^.^.^.^.^.^.^.^.^.^.^.^.^.^.",
"^.^.^.^.^.^.^.^.^.^.^.^.^.^.^.^.^.^.^.^.^.^.^.^.^.^.^.^.^.^.^.^.",
"^.^.^.^.^.^.^.^.^.^.^.^.^.^.^.^.^.^.^.^.^.^.^.^.^.^.^.^.^.^.^.^.",
"^.^.^.^.^.^.^.^.^.^.^.^.^.^.^.^.^.^.^.^.^.^.^.^.^.^.^.^.^.^.^.^.",
"^.^.^.^.^.^.^.^.^.^.^.^.^.^.^.o._ I v v v H ^.^.^.^.^.^.^.^.^.^.",
"^.^.^.^.^.^.^.^.^.^.5 F w.U.Q.!.R.m.e.3.<.4.m.E < ^.^.^.^.^.^.^.",
"^.^.^.^.^.^.^.^.^.M.J.D.j.=.` o.o.~ H H v H E 4 x r.z ^.^.^.^.^.",
"^.^.^.^.^.^.^.R 8.H.Y.F.y.^.^.^.^.^.^.^.^.^.^.o S 6.E d ^.^.^.^.",
"^.^.^.^.^.^.d x.U.q.z ^.^.^.^.^.^.^.^.^.^.^.^.^.^.r | [ ^.^.^.^.",
"^.^.^.^.^.z p.=.~ ^.^.^.^.^.^.^.^.^.^.^.^.^.^.^.^.< :.o.2 ^.^.^.",
"^.^.^.^.^.%.6.z ^.^.^.^.^.^.^.^.^.^.^.^.^.^.^.^.^.=.:.~ 2 ^.^.^.",
"^.^.^.^.s.x.u ^.^.^.^.^.^.^.^.^.^.^.^.^.^.^.^.^.%.V.` r ^.^.^.^.",
"^.^.^.< u.M.r ^.^.^.^.^.^.^.^.^.^.^.^.^.^.^.F.T.h.J 5 2 ^.^.^.^.",
"^.^.^.^.) [ < ^.^.^.^.^.^.^.^.^.^.^.^.r.s.6.5.y.o.< ^.^.^.^.^.^.",
"^.^.^.^.* 3 f z z ^.^.^.^.^.^.^.k 5 H F.~.x.5 @ & % ^.^.^.^.^.^.",
"^.^.^.^.^.z B.I.E.P.R % < e { x.A.1.H z z f < ^.^.^.^.^.^.^.^.^.",
"^.^.^.^.o.x.I.j.s.m.=.f < 5 z [ =.) f ^.^.^.^.^.^.^.^.^.^.^.^.^.",
"^.^.^.< j.W.j.S p @.:.~ < * - @ @ ^.^.^.^.^.^.^.^.^.^.^.^.^.^.^.",
"^.^.^.^.r.m.W 5 & p ~ S < % ^.^.^.^.^.^.^.^.^.^.^.^.^.^.^.^.^.^.",
"^.^.^.^.^.I 3 * < * p 5 ^.^.^.^.^.^.^.^.^.^.^.^.^.^.^.^.^.^.^.^.",
"^.^.^.^.^.O . @ 4 i < ^.^.^.^.^.^.^.^.^.^.^.^.^.^.^.^.^.^.^.^.^.",
"^.^.^.^.^.^.^.& f } p ^.^.^.^.^.^.^.^.^.^.^.^.^.^.^.^.^.^.^.^.^.",
"^.^.^.^.^.^.^.^.~ A.I ^.^.^.^.^.^.^.^.^.^.^.^.^.^.^.^.^.^.^.^.^.",
"^.^.^.^.^.^.^.^.,.s.z ^.^.^.^.^.^.^.^.^.^.^.^.^.^.^.^.^.^.^.^.^.",
"^.^.^.^.^.^.^.s.u.r ^.^.^.^.^.^.^.^.^.^.^.^.^.^.^.^.^.^.^.^.^.^.",
"^.^.^.^.^.^.^.^.z ^.^.^.^.^.^.^.^.^.^.^.^.^.^.^.^.^.^.^.^.^.^.^.",
"^.^.^.^.^.^.^.^.^.^.^.^.^.^.^.^.^.^.^.^.^.^.^.^.^.^.^.^.^.^.^.^.",
"^.^.^.^.^.^.^.^.^.^.^.^.^.^.^.^.^.^.^.^.^.^.^.^.^.^.^.^.^.^.^.^.",
"^.^.^.^.^.^.^.^.^.^.^.^.^.^.^.^.^.^.^.^.^.^.^.^.^.^.^.^.^.^.^.^.",
"^.^.^.^.^.^.^.^.^.^.^.^.^.^.^.^.^.^.^.^.^.^.^.^.^.^.^.^.^.^.^.^.",
"^.^.^.^.^.^.^.^.^.^.^.^.^.^.^.^.^.^.^.^.^.^.^.^.^.^.^.^.^.^.^.^."
};
