/* XPM */
static const char *selectcontinuousarea[] = {
/* columns rows colors chars-per-pixel */
"16 16 46 1",
"  c black",
". c #343733",
"X c #393B36",
"o c #3D403A",
"O c #4D4F4B",
"+ c #525350",
"@ c #555853",
"# c #5A5C57",
"$ c #5D605B",
"% c #6A6A52",
"& c #626460",
"* c #8E8B64",
"= c #858E7E",
"- c #A9A56F",
"; c #B5AE70",
": c #DFD578",
"> c #EEE16D",
", c #EAE079",
"< c #8A9482",
"1 c #8E9785",
"2 c #909987",
"3 c #929B88",
"4 c #959E89",
"5 c #9FA896",
"6 c #A3AB9A",
"7 c #A6AE9D",
"8 c #B5B890",
"9 c #A9B1A1",
"0 c #ACB3A5",
"q c #BCC1A9",
"w c #C5C182",
"e c #D8D59A",
"r c #FCEF89",
"t c #F7EC97",
"y c #F8ED97",
"u c #F8EE94",
"i c #F6ECA2",
"p c #F9F0A7",
"a c #F9F1AF",
"s c #FBF6C5",
"d c #FBF6C8",
"f c #FDFAE8",
"g c #FDFCF2",
"h c #FDFCF4",
"j c #FDFDFA",
"k c None",
/* pixels */
"kkkkkkkkkkkkkkkk",
"kkkkkkkkkkkkkkkk",
"kkkkkkkkkkkkkkkk",
"kkkkkkkkkkkkkkkk",
"kkkk>psrkkkkkkkk",
"kkkktgjdkkkkkkkk",
"kkkkufha:kkkkkkk",
"kkkkkui,e;kkkkkk",
"kkkkkkkw8q*kkkkk",
"kkkkkkkk-40Okkkk",
"kkkkkkkkk%39+kkk",
"kkkkkkkkkko37@kk",
"kkkkkkkkkkkX16#k",
"kkkkkkkkkkkk.<5$",
"kkkkkkkkkkkkkk=&",
"kkkkkkkkkkkkkkkk"
};
