/* XPM */
static const char *IDI_ICON_APP_xpm[] = {
/* columns rows colors chars-per-pixel */
"32 32 239 2",
"   c black",
".  c gray1",
"X  c gray7",
"o  c gray9",
"O  c #1B1B1B",
"+  c #1E1E1E",
"@  c #252525",
"#  c gray17",
"$  c gray19",
"%  c #313131",
"&  c #3A3A3A",
"*  c #3C3C3C",
"=  c #2F4A76",
"-  c #673806",
";  c #673906",
":  c #673907",
">  c #673A06",
",  c #673A07",
"<  c #683907",
"1  c #693907",
"2  c #683A06",
"3  c #693A07",
"4  c #6A3B07",
"5  c #6E3D07",
"6  c #683908",
"7  c #6E3D08",
"8  c #734008",
"9  c #73522E",
"0  c gray27",
"q  c gray28",
"w  c gray30",
"e  c #4E4E4E",
"r  c #515151",
"t  c gray32",
"y  c #5A5A5A",
"u  c #5B5B5B",
"i  c gray36",
"p  c gray37",
"a  c #5F5F5F",
"s  c #53677D",
"d  c #5B6775",
"f  c #5B6878",
"g  c #5C6979",
"h  c #665A4E",
"j  c #675E56",
"k  c #755F47",
"l  c #7E664A",
"z  c #606060",
"x  c gray38",
"c  c #626262",
"v  c gray39",
"b  c #646464",
"n  c #656564",
"m  c #636669",
"M  c #6A6A6A",
"N  c #6C6C6C",
"B  c #716A64",
"V  c #727272",
"C  c #747474",
"Z  c gray46",
"A  c #757675",
"S  c #71777E",
"D  c #204A87",
"F  c #214B87",
"G  c #264B84",
"H  c #214C88",
"J  c #234E8B",
"K  c #284C83",
"L  c #2A4E83",
"P  c #294D84",
"I  c #26518C",
"U  c #2E5D98",
"Y  c #3C669E",
"T  c #46688C",
"R  c #576B82",
"E  c #547499",
"W  c #4772A0",
"Q  c #4174AE",
"!  c #467CB6",
"~  c #537EAD",
"^  c #4C81BA",
"/  c #4F81B8",
"(  c #5882AF",
")  c #5386BD",
"_  c #5B8ABF",
"`  c #5F8BBA",
"'  c #6083AA",
"]  c #6090C4",
"[  c #6A96C5",
"{  c #6B97C7",
"}  c #6F9AC6",
"|  c #6C9ACC",
" . c #7A9DC5",
".. c #7BA1CA",
"X. c #8F4E09",
"o. c #8C5214",
"O. c #9D570B",
"+. c #9F580C",
"@. c #87613D",
"#. c #92683C",
"$. c #A0590B",
"%. c #A3590B",
"&. c #A75C0C",
"*. c #AC5E0D",
"=. c #AC600D",
"-. c #B4630D",
";. c #BB670E",
":. c #BC6A13",
">. c #827A6E",
",. c #D57510",
"<. c #DB7810",
"1. c #E07B11",
"2. c #80827D",
"3. c #A9875F",
"4. c #888A85",
"5. c #898B86",
"6. c #8A8C87",
"7. c #8B8D87",
"8. c #8E8E86",
"9. c #8A8D88",
"0. c #8B8C88",
"q. c #8D8D8D",
"w. c #808993",
"e. c #989995",
"r. c #9C9B95",
"t. c #9B9B9B",
"y. c #9B9C9C",
"u. c #8E98A5",
"i. c #9FA09D",
"p. c #98AABC",
"a. c #A0A19D",
"s. c #A1A3A0",
"d. c #A5A6A4",
"f. c #ABABAC",
"g. c #ACADAB",
"h. c #AEAEAE",
"j. c #AFAFAF",
"k. c gray70",
"l. c #B5B5B3",
"z. c #B4B4B4",
"x. c gray71",
"c. c #B6B6B6",
"v. c #B7B7B7",
"b. c gray72",
"n. c #BBBBBB",
"m. c #BCBCBB",
"M. c gray74",
"N. c gray",
"B. c gray75",
"V. c #8CA5C0",
"C. c #9AAFC7",
"Z. c #96B7DB",
"A. c #9AB6D4",
"S. c #9BBBDD",
"D. c #A3B3C6",
"F. c #A7BACE",
"G. c #ACB9C8",
"H. c #A2BFDF",
"J. c #A2C0DF",
"K. c #B0C4DA",
"L. c #BCC7D2",
"P. c #A5C2E0",
"I. c #ADC7E3",
"U. c #B0CAE4",
"Y. c #B6CDE7",
"T. c #BED0E3",
"R. c #BFD1E5",
"E. c #C0C0C0",
"W. c gray76",
"Q. c #C3C3C3",
"!. c gray77",
"~. c #C5C5C5",
"^. c #C6C6C6",
"/. c #C8C8C8",
"(. c #CACACA",
"). c #CACBCA",
"_. c gray80",
"`. c #CDCDCD",
"'. c #CECECE",
"]. c #C4CED9",
"[. c #C3D1DE",
"{. c #C7D0DA",
"}. c #D0D0D0",
"|. c #D2D2D1",
" X c #D2D2D2",
".X c LightGray",
"XX c gray83",
"oX c #D5D5D5",
"OX c #D4D5D7",
"+X c #D7D7D7",
"@X c #D7DADD",
"#X c #D8D8D8",
"$X c gray85",
"%X c gray86",
"&X c gainsboro",
"*X c #DDDDDD",
"=X c #DFDFDF",
"-X c #C0D3E7",
";X c #C0D4EA",
":X c #C3D6EA",
">X c #CFDEEF",
",X c #D5DEE6",
"<X c #D1DEEB",
"1X c #D6E0EC",
"2X c #DCE4EC",
"3X c #DEE9F4",
"4X c #E1E1E1",
"5X c #E2E2E2",
"6X c gray89",
"7X c #E4E5E4",
"8X c gray90",
"9X c #E6E6E6",
"0X c #E7E7E7",
"qX c gray91",
"wX c #E9E9E9",
"eX c #EAEAEA",
"rX c gray92",
"tX c #EBEDEF",
"yX c #ECECEC",
"uX c gray93",
"iX c #EEEEEE",
"pX c gray94",
"aX c #F1F1F1",
"sX c gray95",
"dX c #F3F3F3",
"fX c #F4F4F4",
"gX c gray96",
"hX c #F6F6F6",
"jX c gray97",
"kX c #F8F8F8",
"lX c #F9F9F9",
"zX c gray98",
"xX c #FBFBFB",
"cX c #FBFCFC",
"vX c gray99",
"bX c #FDFDFD",
"nX c #FEFEFE",
"mX c gray100",
"MX c None",
/* pixels */
"MXMXMXMXMXMXMXMXMXMXMXMXMXMXMXMXMXMXMXMXMXMXMXMXMXMX6 MXMXMXMXMX",
"MXMXMXMXMXMXMXMXMXMXMXMXMXMXMXMXMXMXMXMXMXMXMXMXMX, o.MXMXMXMXMX",
"MXMXMXMXMXMXMXMXMXMXMXMXMXMXMXMXMXMXMXMXMXMXMXMX, %.5 MXMXMXMXMX",
"MXMXMXMXMXMXMXMXMXMXMXMXMXMXMXMXMXMXMXMXMXMXMX, O.X.MXMXMXMXMXMX",
"MXMXMXMXMXMXMXMXMXMXMXMXMXMXMXMXMXMXMXMXMXP G D L = MXMXMXMXMXMX",
"MXMXMXMXMXMXMXMXMXMXMXMXMXMXMXMXMXMXMXI Y  ._ } / Q U J MXMXMXMX",
"MXMXMXMXMXMXMXMXMXMXMXMXMXMXMXMXMXMXMXD | K.] ..) / ! D MXMXMXMX",
"MXMXMXMXMXMXMXMXMXMXMXMXMXMXMXMXMXMXMXD | A.] [ ) ^ ! D MXMXMXMX",
"MXMXMXMXMXMXMXMXMXMXMXMXMXMXMXMXMXMX1 L E R g d f s T J MXMXMXMX",
"MXMXMXMXMXMXMXMXMXMXMXMXMXMXMXMXMX1 7 @.y.sXlXbXcXgXf.MXMXMXMXMX",
"MXMXMXMXMXMXMXMXMXMXMXMXMXMXMXMX1 5 :.B bXbXbXxXzXbXbXq.MXMXMXMX",
"MXMXMXMXMXMXMXMXMXMXMXMXMXMXMX, 4 ;.#.m.xXbXiX*X$XXX*X'.z MXMXMX",
"MXMXMXMXMXMXMXMXMXMXMXMXMXMXMX1 -.,.l }.zXcXtX,XoXoX.X$Xz MXMXMX",
"MXMXMXMXMXMXMXMXMXMXMXMXMXMX1 *.<.%.j L.:X3XP.{ ` ( ' ].a MXMXMX",
"MXMXMXMXMXMXMXMXMXMXMXMX>.9 %.1.&.4 j R.Y.>XP.{ ` ~ W F.m MXMXMX",
"MXMXMXMXMXMXMXMXMXMXMXMX4.8.3.=.7 , n R.I.R.S.{ ` ~ W C.S MXMXMX",
"MXMXMXMXMXMXMXMXMXMXMX8..X8Xr.l , MXv R.H.U.Z.[ ` ~ W p.' MXMXMX",
"MXMXMXMXMXMXMXMXMXMX8.).8X8Xa.4.MXMXz 1X,X2X,X{.L.G.p.D.t.MXMXMX",
"MXMXMXMXMXMXMXMXMXMXl.lX,Xg.5.MXMXMXz gXfXsXeX,X$XXX'.#Xc.MXMXMX",
"MXMXMXMXMXMXMXMXMXs.lX7Xd.8.MXMXMXMXu jXsXiX*XQ.W._.'.XXW.MXMXMX",
"MXMXMXMXMXMXMXMXe.gX8Xa.4.MXMXMXMXMXi lXsXoXh.h.j.j.G..X.Xc MXMX",
"MXMXMXMXMXMXMX2.8XqXe.MXMXMXMXMXMXMXv lX8Xc.c.k.l.l.l.Q.%Xj MXMX",
"MXMXMXMXMX0 Z t Z 0.MXMXMXMXMXMXMXMXN lX'.Q.Q.Q.E.m.n.n.8Xi MXMX",
"MXMXMXMX% a y.z e MXMXMXMXMXMXMXMXMXZ rX).).Q.Q.W.m.n.b.@XN MXMX",
"MXMXMXo e t e t 0 MXMXMXMXMXMXMXMXz j n b b z b n n n j n z b MX",
"MXMX  O # % & & MXMXMXMXMXMXMXMXMXZ sXdXsXsXsXiXyXwX0X0X8X6Xi MX",
"MXMX  . X + @ MXMXMXMXMXMXMXMXMXMXV ,X7X*X*X$X$X+XoXoX|..X'.y MX",
"MXMXMXMXMXMXMXMXMXMXMXMXMXMXMXMXMXa y y y y y y y y y y y y MXMX",
"MXMXMXMXMXMXMXMXMXMXMXMXMXMXMXMXMXMXMXMXMXMXMXMXMXMXMXMXMXMXMXMX",
"MXMXMXMXMXMXMXMXMXMXMXMXMXMXMXMXMXMXMXMXMXMXMXMXMXMXMXMXMXMXMXMX",
"MXMXMXMXMXMXMXMXMXMXMXMXMXMXMXMXMXMXMXMXMXMXMXMXMXMXMXMXMXMXMXMX",
"MXMXMXMXMXMXMXMXMXMXMXMXMXMXMXMXMXMXMXMXMXMXMXMXMXMXMXMXMXMXMXMX"
};
