/* XPM */
static char *transform-rotate[] = {
/* columns rows colors chars-per-pixel */
"16 16 42 1",
"  c black",
". c #164C93",
"X c #3869AA",
"o c #5B85BD",
"O c #678FC3",
"+ c #6990C4",
"@ c #769ACA",
"# c #7C9FCD",
"$ c #7EA1CE",
"% c #81A2CF",
"& c #83A4D0",
"* c #85A6D1",
"= c #87A8D2",
"- c #8AA9D3",
"; c #8CABD4",
": c #8EADD5",
"> c #91AFD6",
", c #93B0D7",
"< c #95B2D8",
"1 c #98B4D9",
"2 c #9AB6DA",
"3 c #9DB7DB",
"4 c #9FB9DC",
"5 c #A2BBDD",
"6 c #A4BDDE",
"7 c #A7BFDF",
"8 c #A9C1E0",
"9 c #AEC4E2",
"0 c #B3C8E4",
"q c #B6CAE5",
"w c #BED0E8",
"e c #C0D2E9",
"r c #C3D4EA",
"t c #CBD7E7",
"y c #C8D8EC",
"u c #D3E0F0",
"i c #E1EAF5",
"p c #E4ECF6",
"a c #EAF0F8",
"s c #EDF2F9",
"d c gray100",
"f c None",
/* pixels */
"...........fffff",
".s589qwry0.fffff",
".4@$=:137*.ddfff",
".7#*;<;..4.ffdff",
".7%->=.aa..fdddf",
".=O++.i-&u.ffdff",
".....i-%&=r.ffff",
"fff.i-%&=;1e.fff",
"ff.p-%&=;:,4w.ff",
"fff.,&=;:,1170.f",
"ffffX1;:,11558&.",
"ffdffo5>11557#.f",
"fdddffX75457$.ff",
"ffdffff.885&.fff",
"fffddtff.7;.ffff",
"fffffffff..fffff"
};
