/* XPM */
static const char *IDC_TRANSFORM_CROP_AND_RESIZE_xpm[] = {
/* columns rows colors chars-per-pixel */
"16 16 70 1",
"  c black",
". c #555753",
"X c #5B5D59",
"o c #5F615D",
"O c #61635E",
"+ c #61645E",
"@ c #62655F",
"# c #626560",
"$ c #636661",
"% c #666963",
"& c #676A64",
"* c #6A6C67",
"= c #6A6C68",
"- c #6D706A",
"; c #6F716D",
": c #828580",
"> c #878985",
", c #91938F",
"< c #979995",
"1 c #9D9F9A",
"2 c #A0A29D",
"3 c #A3A6A0",
"4 c #B1B2AE",
"5 c #B2B3B0",
"6 c #B4B6B1",
"7 c #B4B6B2",
"8 c #BCBDBA",
"9 c #BFBFBE",
"0 c #C0C1BE",
"q c #C2C2BF",
"w c #C3C6BF",
"e c #C3C3C3",
"r c #C4C5C2",
"t c #C5C8C2",
"y c #C6C9C2",
"u c #C6C9C3",
"i c #C7C8C5",
"p c #CACDC5",
"a c #CCCFC8",
"s c #CFD2CB",
"d c #D0D1CD",
"f c #D3D6CE",
"g c #D4D4D2",
"h c #D4D6D2",
"j c #D5D6D2",
"k c #D6D6D5",
"l c #D7D8D7",
"z c #DDDFD9",
"x c #DDDFDB",
"c c #DFE1DB",
"v c #DFE0DD",
"b c #DFE0DF",
"n c #E2E2E1",
"m c #E2E3E1",
"M c gray89",
"N c #E6E6E4",
"B c #E8E8E6",
"V c #E8E9E7",
"C c #E9E9E8",
"Z c #EBECEB",
"A c #ECECEA",
"S c #ECECEB",
"D c #EEEEEC",
"F c gray95",
"G c #F3F3F2",
"H c #F3F3F3",
"J c #F4F4F4",
"K c #F9F9F9",
"L c gray100",
"P c None",
/* pixels */
"PPPPPPPPPPPPPPPP",
"PPPPPPPPPPPPPPPP",
"PPPPPPPPPPPPPPPP",
"PPPPPPPP.LPPPPPP",
"PPPPPPPPLZBPPPPP",
"PPPPPPP.LDq6PPPP",
"PPPPPPP.LNq6PPPP",
"PPPPPPo8.LCjvDPP",
"PPPPP@kB2.LijL.P",
"PPPPP1Gcs2.LL.PP",
"PPPP*Fcfst4O.PPP",
"PPP#Dxptwj5,@PPP",
"PP#bMtsZMe<:PPPP",
"PP9JFMk>-&PPPPPP",
"P*Kr;%PPPPPPPPPP",
"X@PPPPPPPPPPPPPP"
};
