/* XPM */
static char *transformscale[] = {
/* columns rows colors chars-per-pixel */
"16 16 45 1",
"  c black",
". c #164C93",
"X c #658DC2",
"o c #678FC3",
"O c #6990C4",
"+ c #6B92C5",
"@ c #7197C8",
"# c #7398C9",
"$ c #769ACA",
"% c #789CCB",
"& c #7A9DCC",
"* c #7C9FCD",
"= c #7EA1CE",
"- c #81A2CF",
"; c #83A4D0",
": c #85A6D1",
"> c #87A8D2",
", c #8AA9D3",
"< c #8CABD4",
"1 c #8EADD5",
"2 c #91AFD6",
"3 c #93B0D7",
"4 c #95B2D8",
"5 c #98B4D9",
"6 c #9AB6DA",
"7 c #9DB7DB",
"8 c #9FB9DC",
"9 c #A2BBDD",
"0 c #A4BDDE",
"q c #A7BFDF",
"w c #A9C1E0",
"e c #ACC3E1",
"r c #AEC4E2",
"t c #B1C6E3",
"y c #B3C8E4",
"u c #B6CAE5",
"i c #B8CCE6",
"p c #BBCEE7",
"a c #BED0E8",
"s c #C0D2E9",
"d c #C8D8EC",
"f c #CEDCEE",
"g c #D3E0F0",
"h c gray100",
"j c None",
/* pixels */
"........jjjjjjjj",
".grtyut.jjjjjjjj",
".r;><23.jjjjjjjj",
".y,<h%6.........",
".u<2$h-.9qwerp7.",
".r246-h.$%;><8,.",
".......h+;><3q1.",
"j.4o+@$oh%<26e3.",
"j.8$%;>,$h#hwt4.",
"j.q%=;,24+hhrp7.",
"j.q=>,347hhhua9.",
"j.r;,3479qrupsq.",
"j.r,3469qrypsde.",
"j.t1469qrypadft.",
"j.<*-;,2368qwr-.",
"j..............."
};
