/* XPM */
static const char *IDC_TRANSFORM_FLIP_VERTICAL_xpm[] = {
/* columns rows colors chars-per-pixel */
"16 16 46 1",
"  c black",
". c #164C93",
"X c #194E95",
"o c #20549A",
"O c #285CA0",
"+ c #2A5DA1",
"@ c #3063A5",
"# c #3869AA",
"$ c #4170AF",
"% c #4675B2",
"& c #6D93C6",
"* c #6F95C7",
"= c #7398C9",
"- c #769ACA",
"; c #789CCB",
": c #83A4D0",
"> c #87A8D2",
", c #8AA9D3",
"< c #8CABD4",
"1 c #91AFD6",
"2 c #93B0D7",
"3 c #95B2D8",
"4 c #98B4D9",
"5 c #9AB6DA",
"6 c #9DB7DB",
"7 c #9FB9DC",
"8 c #A2BBDD",
"9 c #A4BDDE",
"0 c #A7BFDF",
"q c #A9C1E0",
"w c #AEC4E2",
"e c #B1C6E3",
"r c #C0D2E9",
"t c #C3D4EA",
"y c #C6D6EB",
"u c #C8D8EC",
"i c #CBDAED",
"p c #CEDCEE",
"a c #D1DEEF",
"s c #D3E0F0",
"d c #D6E2F1",
"f c #D9E4F2",
"g c #DCE6F3",
"h c #E1EAF5",
"j c gray100",
"k c None",
/* pixels */
"  ............. ",
"kkkkkkq98kkkkkkk",
"kkkkkkk3kkkkkkkk",
"kkkkkkk-kkkkkkkk",
"kkkkkkkjjkkkkkkk",
"kkkkkk84jkkkkkkk",
"kkkkkk86jkkkkkkk",
"kkkkkk97jkkkkkkk",
"kkkkkkaajkkkkkkk",
"kkkkkkppjkkkkkkk",
"kkkkkk6jjkkkkkkk",
"kkkkkkd8jkkkkkkk",
"kkkkkkfg9kkkkkkk",
"kkkkkkwewkkkkkkk",
"kkkkkk..Xkkkkkkk",
"kkkkkk   kkkkkkk"
};
