/* XPM */
static const char *IDI_ICON_UNLINKED_xpm[] = {
/* columns rows colors chars-per-pixel */
"16 16 115 2 ",
"   c #3A4652",
".  c #3C4D54",
"X  c #344F6C",
"o  c #484D53",
"O  c #404B5D",
"+  c #4E595B",
"@  c #51535F",
"#  c #55595C",
"$  c #414B66",
"%  c #465268",
"&  c #4E5F69",
"*  c #575B66",
"=  c #5B5E63",
"-  c #5A5E67",
";  c #50596A",
":  c #505C68",
">  c #505C6A",
",  c #515E6E",
"<  c #4F5B71",
"1  c #4B5C70",
"2  c #4F5E71",
"3  c #5F6160",
"4  c #5B6567",
"5  c #556268",
"6  c #57616B",
"7  c #496372",
"8  c #4F6175",
"9  c #44637F",
"0  c #576570",
"q  c #506175",
"w  c #526176",
"e  c #5C6C7C",
"r  c #646A76",
"t  c #636C75",
"y  c #656C76",
"u  c #6E7C7D",
"i  c #7A787D",
"p  c #4E6682",
"a  c #51738E",
"s  c #607183",
"d  c #607089",
"f  c #747B81",
"g  c #788693",
"h  c #7A8692",
"j  c #71829E",
"k  c #798699",
"l  c #7F93AC",
"z  c #9099A2",
"x  c #949DAC",
"c  c #8797B0",
"v  c #8D9DB7",
"b  c #989CB7",
"n  c #939EBA",
"m  c #9EA2A1",
"M  c #97A1AB",
"N  c #97A1AD",
"B  c #94A5AD",
"V  c #9DA6AD",
"C  c #93A0B1",
"Z  c #9AA3B4",
"A  c #92A1B8",
"S  c #A2A1A9",
"D  c #A1AAB3",
"F  c #A0AAB4",
"G  c #A9A9B3",
"H  c #9EADC0",
"J  c #9CAEC6",
"K  c #AEB7C8",
"L  c #ABB7CF",
"P  c #B7BAC3",
"I  c #B9B7CC",
"U  c #ACB5D4",
"Y  c #ADBED2",
"T  c #BBC2CC",
"R  c #BCC5D6",
"E  c #B8CFD7",
"W  c #B3C8DB",
"Q  c #C5CECD",
"!  c #D0CCCB",
"~  c #C0C7D7",
"^  c #C9CED2",
"/  c #C8CFD5",
"(  c #C1C3D8",
")  c #C3CFDD",
"_  c #CBD0D6",
"`  c #CFD3D6",
"'  c #C7D1DA",
"]  c #CFD7D9",
"[  c #C8D2DC",
"{  c #D2D3D8",
"}  c #D1D4D9",
"|  c #D4D7DE",
" . c #CDCBE3",
".. c #CACFE5",
"X. c #C0CDED",
"o. c #CCDAE5",
"O. c #C7DAEB",
"+. c #D0D7E7",
"@. c #D0D8E3",
"#. c #D1DCEE",
"$. c #DADEE8",
"%. c #CBDAF1",
"&. c #CFDCFE",
"*. c #D8E3F7",
"=. c #D5E4FB",
"-. c #D6E9F8",
";. c #DCF1FF",
":. c #E4F0FF",
">. c #ECF7FF",
",. c #EEF7FF",
"<. c #EEFAFF",
"1. c #F1FCFF",
"2. c #F6FFFF",
"3. c #F8FFFF",
"4. c None",
/* pixels */
"4.4.4.4.4.4.4.4.4.4.4.4.4.{ # 4.",
"4.4.4.4.4.o ^ 4.4.5 4.4.@.4 4.4.",
"4.4.4.4.4.4.4 ] 4.7 ;.O.; 4.4.4.",
"4.4.4.4.4.4.4.+ 4.& 4.; 4.4.4.4.",
"4.4.4.4.4.4.4.4.4.4.4.4.4.4.4.4.",
"4.4.| T F M V f 4.4.! i S G P 4.",
"4.+.L #.<.2.y 4.4.o.g <.<.R V F ",
"4.L *.A % ; $.4.4.a p X p H H g ",
"4.m 3.. E 4.4.4.4.4.4.4.Q M =.  ",
"4.I ..n j v O @ 4.4./ i M Y c e ",
"4...b U &.X.$ ~ 4.%.s -.W l d A ",
"4.4.` z : w ' 4.4.w w 7 & k Z 4.",
"4.4.4.4.4.4.4.4.4.4.4.4.4.4.4.4.",
"4.4.4.4.4.4.y ' 5 4.= 4.4.4.4.4.",
"4.4.4.4.4.= ~ <.< 4.` y 4.4.4.4.",
"4.4.4.4.4 { ,.:.< 4.4.' w 4.4.4."
};
